<svg width="28" height="40" viewBox="0 0 28 40" fill="none" xmlns="http://www.w3.org/2000/svg">
<rect class="logo-overline" x="3" y="2.2" width="22" height="5" rx="2.5" fill="#5C80F6"/>
<path class="logo-text" d="M9 13.5C9 11.8431 7.65685 10.5 6 10.5C4.34315 10.5 3 11.8431 3 13.5H9ZM25 13.5C25 11.8431 23.6569 10.5 22 10.5C20.3431 10.5 19 11.8431 19 13.5H25ZM25 25.2826V13.5H19V25.2826H25ZM3 13.5V21H9V13.5H3ZM3 21V25.2826H9V21H3ZM16.5133 35.9916C21.4852 34.8248 25 30.3895 25 25.2826H19C19 27.6039 17.4023 29.62 15.1424 30.1504L16.5133 35.9916ZM11.4867 35.9916C13.1398 36.3796 14.8602 36.3796 16.5133 35.9916L15.1424 30.1504C14.391 30.3267 13.609 30.3267 12.8576 30.1504L11.4867 35.9916ZM12.8576 30.1504C10.5977 29.62 9 27.6039 9 25.2826H3C3 30.3895 6.51485 34.8248 11.4867 35.9916L12.8576 30.1504Z" fill="#3D5175"/>
</svg>
