<svg width="139" height="36" viewBox="0 0 139 36" fill="none" xmlns="http://www.w3.org/2000/svg">
<path class="logo-overline" d="M20.5 1.20001H3.5C2.11929 1.20001 1 2.3193 1 3.70001C1 5.08073 2.11929 6.20001 3.5 6.20001H20.5C21.8807 6.20001 23 5.08073 23 3.70001C23 2.3193 21.8807 1.20001 20.5 1.20001Z" fill="#5C80F6"/>
<path class="logo-text" d="M7 12.5C7 10.8431 5.65685 9.5 4 9.5C2.34315 9.5 1 10.8431 1 12.5H7ZM23 12.5C23 10.8431 21.6569 9.5 20 9.5C18.3431 9.5 17 10.8431 17 12.5H23ZM23 24.2826V12.5H17V24.2826H23ZM1 12.5V20H7V12.5H1ZM1 20V24.2826H7V20H1ZM14.5133 34.9916C19.4852 33.8248 23 29.3895 23 24.2826H17C17 26.6039 15.4023 28.62 13.1424 29.1504L14.5133 34.9916ZM9.4867 34.9916C11.1398 35.3796 12.8602 35.3796 14.5133 34.9916L13.1424 29.1504C12.391 29.3267 11.609 29.3267 10.8576 29.1504L9.4867 34.9916ZM10.8576 29.1504C8.5977 28.62 7 26.6039 7 24.2826H1C1 29.3895 4.51485 33.8248 9.4867 34.9916L10.8576 29.1504Z" fill="#3D5175"/>
<path class="logo-text" d="M32.72 35.288C31.792 35.288 31.04 35 30.464 34.424C29.92 33.848 29.648 33.096 29.648 32.168V4.08803C29.648 3.16003 29.904 2.44003 30.416 1.92803C30.96 1.41603 31.696 1.16003 32.624 1.16003H49.472C51.424 1.16003 52.4 1.99203 52.4 3.65603C52.4 5.28803 51.424 6.10403 49.472 6.10403H35.744V15.32H48.512C50.464 15.32 51.44 16.152 51.44 17.816C51.44 19.448 50.464 20.264 48.512 20.264H35.744V32.168C35.744 33.096 35.472 33.848 34.928 34.424C34.384 35 33.648 35.288 32.72 35.288ZM59.2835 35.288C58.4195 35.288 57.6995 35.048 57.1235 34.568C56.5795 34.056 56.3075 33.336 56.3075 32.408V13.88C56.3075 12.952 56.5795 12.248 57.1235 11.768C57.6995 11.288 58.4195 11.048 59.2835 11.048C60.1475 11.048 60.8675 11.288 61.4435 11.768C62.0195 12.248 62.3075 12.952 62.3075 13.88V32.408C62.3075 33.336 62.0195 34.056 61.4435 34.568C60.8675 35.048 60.1475 35.288 59.2835 35.288ZM59.2835 6.77603C58.1955 6.77603 57.3315 6.48803 56.6915 5.91203C56.0515 5.30403 55.7315 4.52003 55.7315 3.56003C55.7315 2.60003 56.0515 1.83203 56.6915 1.25603C57.3315 0.680028 58.1955 0.392029 59.2835 0.392029C60.3395 0.392029 61.1875 0.680028 61.8275 1.25603C62.4995 1.83203 62.8355 2.60003 62.8355 3.56003C62.8355 4.52003 62.5155 5.30403 61.8755 5.91203C61.2355 6.48803 60.3715 6.77603 59.2835 6.77603ZM82.127 10.952C84.943 10.952 87.039 11.752 88.415 13.352C89.791 14.952 90.479 17.368 90.479 20.6V32.408C90.479 33.304 90.207 34.008 89.663 34.52C89.151 35.032 88.431 35.288 87.503 35.288C86.575 35.288 85.839 35.032 85.295 34.52C84.751 34.008 84.479 33.304 84.479 32.408V20.936C84.479 19.112 84.127 17.784 83.423 16.952C82.751 16.12 81.679 15.704 80.207 15.704C78.479 15.704 77.087 16.248 76.031 17.336C75.007 18.424 74.495 19.88 74.495 21.704V32.408C74.495 33.304 74.223 34.008 73.679 34.52C73.135 35.032 72.399 35.288 71.471 35.288C70.543 35.288 69.807 35.032 69.263 34.52C68.751 34.008 68.495 33.304 68.495 32.408V13.832C68.495 13 68.767 12.328 69.311 11.816C69.855 11.304 70.591 11.048 71.519 11.048C72.351 11.048 73.023 11.304 73.535 11.816C74.079 12.296 74.351 12.936 74.351 13.736V15.032C75.151 13.72 76.223 12.712 77.567 12.008C78.911 11.304 80.431 10.952 82.127 10.952ZM106.989 35.384C104.653 35.384 102.589 34.888 100.797 33.896C99.037 32.904 97.6771 31.496 96.7171 29.672C95.7571 27.848 95.2771 25.72 95.2771 23.288C95.2771 20.856 95.7731 18.712 96.7651 16.856C97.7891 14.968 99.213 13.512 101.037 12.488C102.861 11.464 104.957 10.952 107.325 10.952C108.573 10.952 109.821 11.128 111.069 11.48C112.349 11.832 113.469 12.312 114.429 12.92C115.453 13.592 115.965 14.44 115.965 15.464C115.965 16.168 115.789 16.744 115.437 17.192C115.117 17.608 114.685 17.816 114.141 17.816C113.789 17.816 113.421 17.736 113.037 17.576C112.653 17.416 112.269 17.224 111.885 17C111.181 16.584 110.509 16.264 109.869 16.04C109.229 15.784 108.493 15.656 107.661 15.656C105.677 15.656 104.141 16.312 103.053 17.624C101.997 18.904 101.469 20.76 101.469 23.192C101.469 25.592 101.997 27.448 103.053 28.76C104.141 30.04 105.677 30.68 107.661 30.68C108.461 30.68 109.165 30.568 109.773 30.344C110.413 30.088 111.117 29.752 111.885 29.336C112.365 29.048 112.781 28.84 113.133 28.712C113.485 28.552 113.837 28.472 114.189 28.472C114.701 28.472 115.133 28.696 115.485 29.144C115.837 29.592 116.013 30.152 116.013 30.824C116.013 31.368 115.885 31.848 115.629 32.264C115.405 32.648 115.021 33 114.477 33.32C113.485 33.96 112.333 34.472 111.021 34.856C109.709 35.208 108.365 35.384 106.989 35.384ZM128.507 35.384C125.019 35.384 122.203 34.696 120.059 33.32C119.035 32.712 118.523 31.848 118.523 30.728C118.523 30.088 118.699 29.576 119.051 29.192C119.403 28.776 119.835 28.568 120.347 28.568C120.891 28.568 121.643 28.824 122.603 29.336C123.627 29.816 124.555 30.184 125.387 30.44C126.251 30.696 127.339 30.824 128.651 30.824C129.995 30.824 131.035 30.6 131.771 30.152C132.539 29.704 132.923 29.08 132.923 28.28C132.923 27.736 132.763 27.304 132.443 26.984C132.155 26.664 131.611 26.376 130.811 26.12C130.043 25.832 128.859 25.512 127.259 25.16C124.411 24.584 122.363 23.768 121.115 22.712C119.899 21.656 119.291 20.2 119.291 18.344C119.291 16.936 119.707 15.672 120.539 14.552C121.371 13.4 122.507 12.52 123.947 11.912C125.419 11.272 127.083 10.952 128.939 10.952C130.283 10.952 131.579 11.128 132.827 11.48C134.075 11.8 135.195 12.28 136.187 12.92C137.211 13.56 137.723 14.408 137.723 15.464C137.723 16.104 137.547 16.648 137.195 17.096C136.843 17.512 136.411 17.72 135.899 17.72C135.547 17.72 135.195 17.656 134.843 17.528C134.523 17.368 134.107 17.144 133.595 16.856C132.667 16.376 131.867 16.024 131.195 15.8C130.523 15.544 129.691 15.416 128.699 15.416C127.515 15.416 126.571 15.656 125.867 16.136C125.195 16.616 124.859 17.272 124.859 18.104C124.859 18.904 125.211 19.512 125.915 19.928C126.619 20.344 127.979 20.76 129.995 21.176C132.139 21.624 133.819 22.136 135.035 22.712C136.251 23.288 137.115 24.008 137.627 24.872C138.171 25.736 138.443 26.84 138.443 28.184C138.443 30.36 137.531 32.104 135.707 33.416C133.915 34.728 131.515 35.384 128.507 35.384Z" fill="#3D5175"/>
</svg>
