<svg width="24" height="24" viewBox="0 0 24 24" fill="none" xmlns="http://www.w3.org/2000/svg">
<path d="M4 4V9H4.582M4.582 9C5.24585 7.35812 6.43568 5.9829 7.96503 5.08986C9.49438 4.19681 11.2768 3.83641 13.033 4.06514C14.7891 4.29386 16.4198 5.09879 17.6694 6.35377C18.919 7.60875 19.7168 9.24286 19.938 11M4.582 9H9M20 20V15H19.419M19.419 15C18.7542 16.6409 17.564 18.015 16.0348 18.9073C14.5056 19.7995 12.7237 20.1595 10.9681 19.9309C9.21246 19.7022 7.5822 18.8979 6.33253 17.6437C5.08287 16.3896 4.28435 14.7564 4.062 13M19.419 15H15" stroke="#3D5175" stroke-width="2" stroke-linecap="round" stroke-linejoin="round"/>
</svg>
