<svg width="171" height="118" viewBox="0 0 171 118" fill="none" xmlns="http://www.w3.org/2000/svg">
<g clip-path="url(#clip0)">
<path d="M121.807 80.6861C121.807 91.3649 115.459 95.0936 107.629 95.0936C99.7992 95.0936 93.4516 91.3649 93.4516 80.6861C93.4516 70.0073 107.629 56.4221 107.629 56.4221C107.629 56.4221 121.807 70.0073 121.807 80.6861Z" fill="#E53E3E"/>
<path d="M107.258 84.5227L113.301 73.4661L107.281 83.1208L107.346 79.1023L111.511 71.103L107.363 78.0388L107.481 70.8113L111.94 64.4429L107.499 69.6748L107.573 56.4221L107.131 73.2148L102.615 66.3013L107.077 74.6319L106.654 82.7037L106.642 82.4895L101.415 75.1848L106.626 83.2464L106.573 84.2558L106.563 84.2711L106.568 84.354L105.496 95.1254H106.928L107.1 94.2552L112.298 86.2134L107.113 93.46L107.258 84.5227Z" fill="#3F3D56"/>
<path d="M170.36 46.3502C170.36 66.7493 158.235 73.872 143.277 73.872C128.32 73.872 116.194 66.7493 116.194 46.3502C116.194 25.951 143.277 0 143.277 0C143.277 0 170.36 25.951 170.36 46.3502Z" fill="#F2F2F2"/>
<path d="M142.291 70.7515L142.568 53.6793L154.111 32.5584L142.611 51.0011L142.736 43.3246L150.692 28.044L142.769 41.2933V41.2934L142.993 27.487L151.512 15.3217L143.029 25.316L143.169 0L142.288 33.5138L142.361 32.1312L133.699 18.8717L142.222 34.7851L141.415 50.2044L141.39 49.7952L131.405 35.8416L141.36 51.241L141.259 53.1694L141.241 53.1984L141.25 53.3567L139.202 92.4767H141.938L142.266 72.2705L152.196 56.9088L142.291 70.7515Z" fill="#3F3D56"/>
<path d="M169.248 89.0611C169.248 95.1497 129.757 118 83.5907 118C37.4249 118 0 106.174 0 100.085C0 93.9969 36.5063 101.234 82.6722 101.234C128.838 101.234 169.248 82.9725 169.248 89.0611Z" fill="#3F3D56"/>
<path opacity="0.1" d="M169.248 89.0611C169.248 95.1497 129.757 118 83.5907 118C37.4249 118 0 106.174 0 100.085C0 93.9969 36.5063 101.234 82.6722 101.234C128.838 101.234 169.248 82.9725 169.248 89.0611Z" fill="black"/>
<path d="M169.248 89.0611C169.248 95.1497 129.757 111.11 83.5907 111.11C37.4249 111.11 0 106.174 0 100.085C0 93.9969 36.5063 94.3436 82.6722 94.3436C128.838 94.3436 169.248 82.9725 169.248 89.0611Z" fill="#3F3D56"/>
<path opacity="0.1" d="M84.5261 103.988C104.131 103.988 120.023 102.759 120.023 101.242C120.023 99.7256 104.131 98.4962 84.5261 98.4962C64.9216 98.4962 49.0291 99.7256 49.0291 101.242C49.0291 102.759 64.9216 103.988 84.5261 103.988Z" fill="black"/>
<path d="M56.4053 46.2164C56.4053 46.2164 66.7973 46.4088 64.8729 48.2373C62.9484 50.0658 55.7317 48.2373 55.7317 48.2373L56.4053 46.2164Z" fill="#A0616A"/>
<path d="M34.7533 24.0074C34.7533 24.0074 38.949 23.258 40.4079 26.6456C41.8668 30.0332 44.8629 39.6943 44.8629 39.6943C44.8629 39.6943 52.881 45.0024 54.3394 44.828C55.7978 44.6536 58.2909 45.0094 57.8336 46.6007C57.3763 48.1919 57.5793 49.9963 56.5265 50.2175C55.4737 50.4386 53.7992 48.3276 52.5177 49.3444C51.2362 50.3612 39.8154 46.6474 39.0821 45.8779C38.3489 45.1084 32.2556 28.4459 32.2556 28.4459C32.2556 28.4459 32.4994 23.9531 34.7533 24.0074Z" fill="#E53E3E"/>
<path d="M43.752 95.5367L44.2331 99.5785L40.1918 100.637L37.8824 99.5785V96.0178L43.752 95.5367Z" fill="#A0616A"/>
<path d="M32.8788 98.135L33.3599 102.177L29.3186 103.235L27.0092 102.177V98.6162L32.8788 98.135Z" fill="#A0616A"/>
<path d="M44.1369 51.3649L45.9651 58.0051L48.6594 71.478C48.6594 71.478 49.4291 74.75 47.8896 78.6956C46.35 82.6412 43.5596 95.5367 44.1369 96.3065C44.7142 97.0764 37.5938 97.6538 37.69 96.8839C37.7862 96.1141 38.7484 85.5282 38.7484 85.5282C38.7484 85.5282 40.0955 76.1935 40.7691 75.0387C41.4427 73.8838 37.69 70.9968 37.69 70.9968C37.69 70.9968 36.7278 82.0638 35.2844 83.0261C33.8411 83.9885 34.0335 98.9049 33.36 99.0973C32.6864 99.2898 27.779 100.06 27.2017 99.0973C26.6244 98.135 27.2017 82.0638 27.2017 82.0638C27.2017 82.0638 30.4733 69.842 29.7997 68.1098C29.1262 66.3775 29.5111 58.9675 29.5111 58.9675C29.5111 58.9675 27.0093 53.2896 28.3564 50.3063L44.1369 51.3649Z" fill="#2F2E41"/>
<path d="M43.8483 14.4108C43.8483 14.4108 39.8069 19.415 39.9993 21.6284C40.1918 23.8418 33.6487 17.5866 33.6487 17.5866C33.6487 17.5866 38.3636 11.2351 38.3636 9.88779C38.3636 8.5405 43.8483 14.4108 43.8483 14.4108Z" fill="#A0616A"/>
<path d="M43.8001 16.2874C47.3075 16.2874 50.1508 13.4437 50.1508 9.93587C50.1508 6.42804 47.3075 3.58438 43.8001 3.58438C40.2927 3.58438 37.4494 6.42804 37.4494 9.93587C37.4494 13.4437 40.2927 16.2874 43.8001 16.2874Z" fill="#A0616A"/>
<path d="M27.7954 47.7648C27.5077 48.8369 27.1507 50.0523 27.2017 51.0763C27.2344 51.7393 28.9943 52.1743 31.4278 52.4591C33.6842 52.7238 36.5199 52.8585 39.0977 52.9278C41.8045 53.001 44.2244 53.001 45.3878 53.001C48.8518 53.001 46.0613 50.7876 44.7142 49.729C43.3671 48.6704 43.6558 33.6578 43.752 31.7331C43.8482 29.8084 42.886 24.2268 42.886 23.1682C42.886 22.1096 40.6219 19.3467 40.6219 19.3467C40.6219 19.3467 40.0955 20.8585 37.9787 18.8376C35.8618 16.8167 33.0713 16.2393 33.0713 16.2393C30.9544 17.0092 27.3942 25.4778 27.2017 26.9213C27.1238 27.5074 27.1882 30.509 27.3191 33.9359C27.5087 38.9449 27.8397 44.8662 28.0677 45.4946C28.2477 45.9902 28.0485 46.8217 27.7954 47.7648Z" fill="#E53E3E"/>
<path d="M38.0749 53.3859L38.7484 55.7918L36.1504 58.4863L35.2844 54.7331L38.0749 53.3859Z" fill="#A0616A"/>
<path d="M38.9409 98.52C38.9409 98.52 40.9616 100.83 42.5011 99.2898C44.0407 97.7501 43.9445 96.7877 44.2331 96.7877C44.5218 96.7877 48.8518 100.637 48.8518 100.637C48.8518 100.637 56.261 102.369 52.2196 103.62C48.1783 104.871 36.7278 104.005 36.7278 103.62C36.7278 103.235 36.4391 98.135 37.4975 98.135L38.9409 98.52Z" fill="#2F2E41"/>
<path d="M28.0677 101.118C28.0677 101.118 30.0884 103.428 31.6279 101.888C33.1675 100.348 33.0713 99.386 33.36 99.386C33.6486 99.386 37.9786 103.235 37.9786 103.235C37.9786 103.235 45.3878 104.968 41.3464 106.219C37.3051 107.47 25.8546 106.604 25.8546 106.219C25.8546 105.834 25.5659 100.733 26.6244 100.733L28.0677 101.118Z" fill="#2F2E41"/>
<path d="M36.67 15.006C36.4649 15.1385 36.1978 15.2728 35.9924 15.1407C35.2287 13.2357 34.6578 11.259 34.2884 9.24019C34.1587 8.53106 34.0687 7.74274 34.4626 7.139C34.6179 6.90089 34.8416 6.70617 34.9553 6.44563C35.1277 6.05105 35.0143 5.59432 35.0715 5.16757C35.1914 4.27352 36.0365 3.64994 36.8862 3.34752C37.736 3.04509 38.6589 2.95128 39.4689 2.55444C40.238 2.17762 40.854 1.5527 41.5671 1.07848C42.2803 0.604251 43.1938 0.280007 43.988 0.600455C44.6906 0.883938 45.1283 1.60019 45.7924 1.96489C46.243 2.21237 46.766 2.28124 47.2691 2.38747C48.6672 2.68414 49.9799 3.29407 51.1083 4.17136C51.3828 4.36724 51.6195 4.61131 51.807 4.89173C52.6592 6.29499 51.1333 8.20279 51.8065 9.70023L50.3512 8.55171C49.9625 8.21171 49.5242 7.93311 49.0514 7.72555C48.5693 7.54293 47.9984 7.52087 47.5605 7.7929C46.946 8.17466 46.7793 8.97224 46.5646 9.66318C46.35 10.3541 45.8753 11.1203 45.152 11.1026C44.1685 11.0785 43.8245 9.70575 42.9419 9.27112C42.3665 8.9878 41.6422 9.17438 41.1517 9.5876C40.6612 10.0008 40.3668 10.6003 40.151 11.2043C40.0161 11.5817 39.8895 12.0072 39.6499 12.3344C39.3856 12.6952 39.0476 12.7242 38.7654 12.9937C38.0306 13.6951 37.5789 14.4187 36.67 15.006Z" fill="#2F2E41"/>
<path opacity="0.1" d="M27.7954 47.7648C28.9914 49.4999 30.3395 51.2899 31.4278 52.4591C33.6842 52.7238 36.5199 52.8585 39.0977 52.9278C38.6372 52.3033 38.0613 51.7728 37.4013 51.3649C36.1504 50.5951 33.1675 41.4528 33.1675 41.4528C33.1675 41.4528 36.824 32.0218 37.7862 28.4611C38.7484 24.9004 34.9957 22.8795 34.9957 22.8795C33.2637 21.4359 30.2808 24.8042 30.2808 24.8042C30.2808 24.8042 28.7586 29.3965 27.3191 33.9359C27.5086 38.9449 27.8397 44.8662 28.0677 45.4946C28.2476 45.9902 28.0485 46.8217 27.7954 47.7648Z" fill="black"/>
<path d="M34.7071 22.1096C34.7071 22.1096 38.4598 24.1305 37.4975 27.6912C36.5353 31.2519 32.8789 40.6829 32.8789 40.6829C32.8789 40.6829 35.8618 49.8252 37.1126 50.5951C38.3635 51.365 40.0955 53.1934 38.7484 54.1558C37.4013 55.1181 36.4391 56.6579 35.4769 56.1767C34.5146 55.6955 34.5146 53.0009 32.8789 53.0009C31.2431 53.0009 24.6037 42.9925 24.5075 41.934C24.4113 40.8754 29.9922 24.0343 29.9922 24.0343C29.9922 24.0343 32.9751 20.6661 34.7071 22.1096Z" fill="#E53E3E"/>
<path d="M112.74 48.4133L111.657 47.3307C111.026 46.6992 110.169 46.3445 109.276 46.3445C108.383 46.3445 107.527 46.6992 106.896 47.3307L85.8989 68.3301L64.9022 47.3307C64.2708 46.6992 63.4144 46.3445 62.5215 46.3445C61.6285 46.3445 60.7722 46.6992 60.1408 47.3307L59.0583 48.4133C58.7457 48.726 58.4977 49.0972 58.3285 49.5057C58.1593 49.9143 58.0722 50.3521 58.0722 50.7943C58.0722 51.2365 58.1593 51.6744 58.3285 52.0829C58.4977 52.4914 58.7457 52.8626 59.0583 53.1753L80.0551 74.1747L59.0583 95.1741C58.7457 95.4868 58.4977 95.858 58.3285 96.2665C58.1593 96.675 58.0722 97.1129 58.0722 97.5551C58.0722 97.9973 58.1593 98.4351 58.3285 98.8436C58.4977 99.2522 58.7457 99.6234 59.0583 99.9361L60.1408 101.019C60.7722 101.65 61.6285 102.005 62.5215 102.005C63.4144 102.005 64.2708 101.65 64.9022 101.019L85.8989 80.0193L106.896 101.019C107.527 101.65 108.383 102.005 109.276 102.005C110.169 102.005 111.026 101.65 111.657 101.019L112.74 99.9361C113.371 99.3046 113.726 98.4481 113.726 97.5551C113.726 96.662 113.371 95.8056 112.74 95.1741L91.7428 74.1747L112.74 53.1753C113.371 52.5438 113.726 51.6874 113.726 50.7943C113.726 49.9013 113.371 49.0448 112.74 48.4133V48.4133Z" fill="#FF6584"/>
<path opacity="0.1" d="M58.309 96.3158L78.6822 75.94L78.4861 75.7438L59.0583 95.1741C58.7329 95.4992 58.4778 95.8878 58.309 96.3158V96.3158Z" fill="black"/>
<path opacity="0.1" d="M58.768 49.0959C59.3994 48.4644 60.2557 48.1097 61.1487 48.1097C62.0416 48.1097 62.898 48.4644 63.5294 49.0959L84.5261 70.0953L105.523 49.0959C106.154 48.4644 107.011 48.1097 107.904 48.1097C108.796 48.1097 109.653 48.4644 110.284 49.0959L111.367 50.1786C111.831 50.6431 112.15 51.2334 112.283 51.8766C112.416 52.5199 112.358 53.1881 112.116 53.7988L112.74 53.1753C113.052 52.8626 113.3 52.4914 113.469 52.0829C113.639 51.6743 113.726 51.2365 113.726 50.7943C113.726 50.3521 113.639 49.9142 113.469 49.5057C113.3 49.0972 113.052 48.726 112.74 48.4133L111.657 47.3307C111.026 46.6992 110.169 46.3444 109.276 46.3444C108.383 46.3444 107.527 46.6992 106.896 47.3307L85.8989 68.3301L64.9022 47.3307C64.2708 46.6992 63.4144 46.3444 62.5215 46.3444C61.6286 46.3444 60.7722 46.6992 60.1408 47.3307L59.0583 48.4133C58.7329 48.7384 58.4778 49.127 58.309 49.555L58.768 49.0959Z" fill="black"/>
<path opacity="0.1" d="M91.9389 74.3708L90.37 75.94L111.367 96.9393C111.831 97.4039 112.149 97.9942 112.283 98.6374C112.416 99.2807 112.358 99.9489 112.116 100.56L112.74 99.936C113.052 99.6234 113.3 99.2522 113.469 98.8436C113.639 98.4351 113.726 97.9973 113.726 97.5551C113.726 97.1129 113.639 96.675 113.469 96.2665C113.3 95.8579 113.052 95.4868 112.74 95.1741L91.9389 74.3708Z" fill="black"/>
<path d="M24.4487 88.3723C24.4487 97.2415 19.1768 100.338 12.6736 100.338C6.17035 100.338 0.898438 97.2415 0.898438 88.3723C0.898438 79.5032 12.6736 68.2202 12.6736 68.2202C12.6736 68.2202 24.4487 79.5032 24.4487 88.3723Z" fill="#E53E3E"/>
<path d="M12.3652 91.5589L17.3841 82.3759L12.3841 90.3945L12.4384 87.0569L15.8973 80.4131L12.4527 86.1737L12.5502 80.171L16.2541 74.8817L12.5655 79.2271L12.6264 68.2202L12.26 82.1672L8.50925 76.4253L12.2146 83.344L11.8638 90.0481L11.8534 89.8701L7.51205 83.8034L11.8401 90.4988L11.7963 91.3372L11.7884 91.3499L11.792 91.4186L10.9018 100.365H12.0912L12.234 99.642L16.5515 92.9631L12.2447 98.9815L12.3652 91.5589Z" fill="#3F3D56"/>
</g>
<defs>
<clipPath id="clip0">
<rect width="170.36" height="118" fill="white"/>
</clipPath>
</defs>
</svg>
