<svg width="126" height="118" viewBox="0 0 126 118" fill="none" xmlns="http://www.w3.org/2000/svg">
<g clip-path="url(#clip0)">
<path d="M100.058 83.8374C100.058 83.8374 115.522 84.6444 111.92 89.558C108.318 94.4717 98.8538 86.6757 98.8538 86.6757L100.058 83.8374Z" fill="#FFB8B8"/>
<path d="M71.5602 37.0356L74.7079 37.8299C74.7079 37.8299 76.544 43.3899 77.8555 48.4203C79.167 53.4507 81.7901 68.542 81.7901 68.542L102.126 82.9271L99.7003 88.4037L72.6095 77.6268L66.5764 53.7155L71.5602 37.0356Z" fill="#575A89"/>
<path opacity="0.2" d="M74.5217 46.9048L73.3485 71.7021L75.7966 79.0746L68.6255 73.7666L74.5217 46.9048Z" fill="black"/>
<path d="M78.7734 90.9143C78.7734 90.9143 82.1834 100.181 82.708 106.535C83.2326 112.889 83.7572 117.92 83.7572 117.92H67.7567L64.609 113.154V117.92H45.9854C45.9854 117.92 40.7393 100.71 42.8377 98.5923C44.9362 96.4742 64.8713 87.4724 64.8713 87.4724L78.7734 90.9143Z" fill="#2F2E41"/>
<path d="M109.262 117.678H16.6748V118H109.262V117.678Z" fill="#3F3D56"/>
<path d="M58.7073 26.9749C64.2122 26.9749 68.6749 22.4706 68.6749 16.9141C68.6749 11.3577 64.2122 6.85327 58.7073 6.85327C53.2024 6.85327 48.7397 11.3577 48.7397 16.9141C48.7397 22.4706 53.2024 26.9749 58.7073 26.9749Z" fill="#FFB8B8"/>
<path d="M51.1004 21.1501L50.3135 32.7995L60.281 46.3022L65.2648 33.5938C65.2648 33.5938 60.8056 30.6815 63.4287 24.592L51.1004 21.1501Z" fill="#FFB8B8"/>
<path d="M80.2155 93.1643C80.2155 95.548 73.658 99.254 73.658 99.254V100.578L71.0349 101.902L65.2646 90.2529L63.6917 102.96C63.6917 102.96 52.1494 104.815 48.4778 102.96C44.8046 101.107 42.9688 101.902 37.7228 100.049C32.4767 98.1956 39.8215 73.3075 39.8215 73.3075L34.5754 34.9176L46.0365 29.1335L46.6404 28.8278L48.2165 28.5351L50.6323 28.0847L58.707 33.5938L59.3572 37.036L59.7572 39.1544L61.8543 36.7706L63.4383 31.5124L74.7081 37.8306L71.5608 63.2463C71.5608 63.2463 80.2155 90.7821 80.2155 93.1643Z" fill="#575A89"/>
<path d="M41.6575 101.372C41.6575 101.372 53.7235 111.168 47.9528 113.021C42.1821 114.875 39.0344 102.961 39.0344 102.961L41.6575 101.372Z" fill="#FFB8B8"/>
<path d="M37.1982 35.4472L34.5752 34.9177C34.5752 34.9177 30.6406 37.0358 30.3783 41.2719C30.116 45.5081 26.7061 75.1611 26.7061 75.1611L37.7228 105.079L46.6412 101.637L37.9851 73.5725L44.5427 49.2147L37.1982 35.4472Z" fill="#575A89"/>
<path d="M59.8609 43.5269C60.389 43.5269 60.8171 43.0948 60.8171 42.5618C60.8171 42.0288 60.389 41.5967 59.8609 41.5967C59.3329 41.5967 58.9048 42.0288 58.9048 42.5618C58.9048 43.0948 59.3329 43.5269 59.8609 43.5269Z" fill="#2F2E41"/>
<path d="M59.8609 49.8001C60.389 49.8001 60.8171 49.368 60.8171 48.835C60.8171 48.302 60.389 47.8699 59.8609 47.8699C59.3329 47.8699 58.9048 48.302 58.9048 48.835C58.9048 49.368 59.3329 49.8001 59.8609 49.8001Z" fill="#2F2E41"/>
<path d="M65.2789 91.1382C65.807 91.1382 66.235 90.7061 66.235 90.1731C66.235 89.6401 65.807 89.208 65.2789 89.208C64.7508 89.208 64.3228 89.6401 64.3228 90.1731C64.3228 90.7061 64.7508 91.1382 65.2789 91.1382Z" fill="#2F2E41"/>
<path d="M50.2918 6.6072L48.4493 5.86264C48.4493 5.86264 52.3019 1.58143 57.6621 1.95372L56.1545 0.278457C56.1545 0.278457 59.8396 -1.21064 63.1897 2.69827C64.9508 4.75309 66.9884 7.16845 68.2586 9.8893H70.2319L69.4083 11.7197L72.2908 13.55L69.3322 13.2212C69.5085 14.2236 69.5356 15.2469 69.4125 16.2572C69.2856 17.2679 68.7746 18.1893 67.9874 18.827C67.9874 18.827 65.7023 14.0528 65.7023 13.3082V15.1696C65.7023 15.1696 63.8597 13.4943 63.8597 12.3775L62.8547 13.6805H56.1545L57.1595 12.0052L53.3069 12.5637L54.8145 10.5161L48.8496 18.9711C48.8496 18.9711 45.4342 9.39928 50.2918 6.6072Z" fill="#2F2E41"/>
<path d="M109.564 77.7777C118.365 77.7777 125.5 70.5763 125.5 61.6928C125.5 52.8094 118.365 45.6079 109.564 45.6079C100.763 45.6079 93.6284 52.8094 93.6284 61.6928C93.6284 70.5763 100.763 77.7777 109.564 77.7777Z" fill="#3F3D56"/>
<path opacity="0.1" d="M109.564 75.5259C117.133 75.5259 123.269 69.3327 123.269 61.6929C123.269 54.0531 117.133 47.8599 109.564 47.8599C101.995 47.8599 95.8594 54.0531 95.8594 61.6929C95.8594 69.3327 101.995 75.5259 109.564 75.5259Z" fill="black"/>
<path d="M108.907 69.8556V67.8422C107.899 67.8223 106.856 67.4634 106.248 66.9651L106.665 65.6295C107.388 66.1764 108.265 66.4766 109.168 66.4866C110.403 66.4866 111.237 65.6693 111.237 64.5331C111.237 63.4367 110.559 62.759 109.272 62.1609C107.499 61.3636 106.404 60.4465 106.404 58.7123C106.404 57.0577 107.43 55.8019 109.029 55.5029V53.4895H110.107V55.4231C110.911 55.4342 111.695 55.6762 112.367 56.1208L111.932 57.4365C111.287 56.9909 110.523 56.7545 109.742 56.7587C108.403 56.7587 107.899 57.6756 107.899 58.4731C107.899 59.5096 108.542 60.0279 110.055 60.7456C111.845 61.5828 112.749 62.6194 112.749 64.3935C112.749 65.9683 111.793 67.4435 110.003 67.7822V69.8556H108.907Z" fill="#3182CE"/>
<path opacity="0.2" d="M40.3403 81.2078L46.7138 101.303L41.6144 80.3928L40.3403 81.2078Z" fill="black"/>
<path d="M7.8454 41.95H3.79982C3.6235 41.9498 3.45445 41.879 3.32977 41.7532C3.20509 41.6273 3.13496 41.4567 3.13477 41.2787V35.4088C3.13496 35.2309 3.20509 35.0602 3.32977 34.9344C3.45445 34.8085 3.6235 34.7377 3.79982 34.7375H7.8454C8.02172 34.7377 8.19077 34.8085 8.31544 34.9344C8.44012 35.0602 8.51025 35.2309 8.51045 35.4088V41.2787C8.51025 41.4567 8.44012 41.6273 8.31544 41.7532C8.19077 41.879 8.02172 41.9498 7.8454 41.95ZM3.79982 35.0592C3.708 35.0594 3.61997 35.0962 3.55504 35.1618C3.49012 35.2273 3.45359 35.3161 3.45348 35.4088V41.2787C3.45359 41.3714 3.49012 41.4603 3.55504 41.5258C3.61997 41.5913 3.708 41.6282 3.79982 41.6283H7.8454C7.93722 41.6282 8.02524 41.5913 8.09017 41.5258C8.1551 41.4603 8.19162 41.3714 8.19173 41.2787V35.4088C8.19162 35.3161 8.1551 35.2273 8.09017 35.1618C8.02524 35.0962 7.93722 35.0594 7.8454 35.0592H3.79982Z" fill="#3F3D56"/>
<path d="M15.2348 41.95H11.5814C11.353 41.9498 11.1342 41.8581 10.9727 41.6951C10.8113 41.5322 10.7205 41.3113 10.7202 41.0808V29.2264C10.7205 28.9959 10.8113 28.775 10.9727 28.6121C11.1342 28.4491 11.353 28.3574 11.5814 28.3572H15.2348C15.4631 28.3574 15.6819 28.4491 15.8434 28.6121C16.0048 28.775 16.0956 28.9959 16.0959 29.2264V41.0808C16.0956 41.3113 16.0048 41.5322 15.8434 41.6951C15.6819 41.8581 15.4631 41.9498 15.2348 41.95ZM11.5814 28.6789C11.4375 28.679 11.2997 28.7368 11.198 28.8394C11.0963 28.942 11.0391 29.0812 11.0389 29.2264V41.0808C11.0391 41.226 11.0963 41.3651 11.198 41.4678C11.2997 41.5704 11.4375 41.6282 11.5814 41.6283H15.2348C15.3786 41.6282 15.5164 41.5704 15.6181 41.4678C15.7198 41.3651 15.777 41.226 15.7772 41.0808V29.2264C15.777 29.0812 15.7198 28.9421 15.6181 28.8394C15.5164 28.7368 15.3786 28.679 15.2348 28.6789L11.5814 28.6789Z" fill="#3F3D56"/>
<path d="M22.6791 41.9501H19.3079C19.0422 41.9497 18.7874 41.8431 18.5995 41.6534C18.4117 41.4638 18.306 41.2067 18.3057 40.9385V23.4989C18.306 23.2307 18.4117 22.9736 18.5995 22.7839C18.7874 22.5943 19.0422 22.4876 19.3079 22.4873H22.6791C22.9449 22.4876 23.1996 22.5943 23.3875 22.7839C23.5754 22.9736 23.6811 23.2307 23.6814 23.4989V40.9385C23.6811 41.2067 23.5754 41.4638 23.3875 41.6534C23.1996 41.8431 22.9449 41.9497 22.6791 41.9501ZM19.3079 22.809C19.1267 22.8092 18.9529 22.882 18.8248 23.0113C18.6967 23.1406 18.6246 23.316 18.6244 23.4989V40.9385C18.6246 41.1214 18.6967 41.2967 18.8248 41.4261C18.9529 41.5554 19.1267 41.6281 19.3079 41.6284H22.6791C22.8604 41.6281 23.0341 41.5554 23.1622 41.4261C23.2904 41.2967 23.3624 41.1214 23.3626 40.9385V23.4989C23.3624 23.316 23.2904 23.1406 23.1622 23.0113C23.0341 22.882 22.8604 22.8092 22.6791 22.809H19.3079Z" fill="#3F3D56"/>
<path d="M7.3396 35.8555H4.30542V40.8321H7.3396V35.8555Z" fill="#3182CE"/>
<path d="M14.925 29.5388H11.8909V40.832H14.925V29.5388Z" fill="#3182CE"/>
<path d="M22.5105 23.6689H19.4763V40.8321H22.5105V23.6689Z" fill="#3182CE"/>
<path d="M115.716 23.4524H94.5212C94.5002 23.4524 94.4795 23.4482 94.4602 23.4401C94.4408 23.432 94.4233 23.4202 94.4085 23.4053C94.3937 23.3903 94.3819 23.3726 94.3739 23.3531C94.3659 23.3335 94.3618 23.3126 94.3618 23.2915V1.57686C94.3618 1.5342 94.3786 1.49329 94.4085 1.46313C94.4384 1.43296 94.4789 1.41602 94.5212 1.41602C94.5634 1.41602 94.604 1.43296 94.6339 1.46313C94.6637 1.49329 94.6805 1.5342 94.6805 1.57686V23.1307H115.716C115.758 23.1307 115.799 23.1476 115.828 23.1778C115.858 23.2079 115.875 23.2488 115.875 23.2915C115.875 23.3342 115.858 23.3751 115.828 23.4052C115.799 23.4354 115.758 23.4524 115.716 23.4524Z" fill="#3F3D56"/>
<path d="M25.8379 44.202H0.659358C0.638429 44.202 0.617705 44.1978 0.598368 44.1897C0.579032 44.1817 0.561461 44.1698 0.546663 44.1549C0.531864 44.1399 0.520126 44.1222 0.512119 44.1027C0.504113 44.0832 0.499995 44.0622 0.5 44.0411V18.7878C0.5 18.7451 0.516789 18.7042 0.546675 18.6741C0.57656 18.6439 0.617094 18.627 0.659358 18.627C0.701622 18.627 0.742156 18.6439 0.772041 18.6741C0.801927 18.7042 0.818716 18.7451 0.818716 18.7878V43.8803H25.8379C25.8802 43.8803 25.9207 43.8972 25.9506 43.9274C25.9805 43.9576 25.9973 43.9985 25.9973 44.0411C25.9973 44.0838 25.9805 44.1247 25.9506 44.1549C25.9207 44.185 25.8802 44.202 25.8379 44.202Z" fill="#3F3D56"/>
<path d="M101.835 21.4366H97.7899C97.6136 21.4364 97.4445 21.3656 97.3198 21.2398C97.1951 21.1139 97.125 20.9433 97.1248 20.7653V14.8954C97.125 14.7174 97.1951 14.5468 97.3198 14.4209C97.4445 14.2951 97.6136 14.2243 97.7899 14.2241H101.835C102.012 14.2243 102.181 14.2951 102.305 14.421C102.43 14.5468 102.5 14.7174 102.5 14.8954V20.7653C102.5 20.9433 102.43 21.1139 102.305 21.2397C102.181 21.3656 102.012 21.4364 101.835 21.4366ZM97.7899 14.5458C97.6981 14.5459 97.61 14.5828 97.5451 14.6483C97.4801 14.7139 97.4436 14.8027 97.4435 14.8954V20.7653C97.4436 20.858 97.4801 20.9468 97.5451 21.0124C97.61 21.0779 97.6981 21.1148 97.7899 21.1149H101.835C101.927 21.1148 102.015 21.0779 102.08 21.0124C102.145 20.9468 102.182 20.858 102.182 20.7653V14.8954C102.182 14.8027 102.145 14.7139 102.08 14.6483C102.015 14.5828 101.927 14.5459 101.835 14.5458H97.7899Z" fill="#3F3D56"/>
<path d="M110.12 21.4364H106.397C106.178 21.4362 105.968 21.3482 105.813 21.1919C105.658 21.0356 105.571 20.8236 105.571 20.6026V9.9705C105.571 9.74944 105.658 9.5375 105.813 9.38119C105.968 9.22488 106.178 9.13696 106.397 9.13672H110.12C110.339 9.13696 110.549 9.22488 110.704 9.38119C110.859 9.5375 110.946 9.74944 110.946 9.9705V20.6026C110.946 20.8236 110.859 21.0356 110.704 21.1919C110.549 21.3482 110.339 21.4362 110.12 21.4364ZM106.397 9.45842C106.262 9.45856 106.133 9.51256 106.038 9.60856C105.943 9.70456 105.89 9.83473 105.89 9.9705V20.6026C105.89 20.7383 105.943 20.8685 106.038 20.9645C106.133 21.0606 106.262 21.1146 106.397 21.1147H110.12C110.255 21.1146 110.384 21.0606 110.479 20.9645C110.574 20.8685 110.628 20.7383 110.628 20.6026V9.9705C110.628 9.83473 110.574 9.70456 110.479 9.60856C110.384 9.51256 110.255 9.45856 110.12 9.45842H106.397Z" fill="#3F3D56"/>
<path d="M101.257 15.3977H98.2227V20.3744H101.257V15.3977Z" fill="#3182CE"/>
<path d="M109.776 10.4722H106.741V20.1012H109.776V10.4722Z" fill="#3182CE"/>
<path d="M99.7799 12.5147C100.572 12.5147 101.214 11.8665 101.214 11.067C101.214 10.2675 100.572 9.61938 99.7799 9.61938C98.9878 9.61938 98.3457 10.2675 98.3457 11.067C98.3457 11.8665 98.9878 12.5147 99.7799 12.5147Z" fill="#3182CE"/>
<path d="M108.226 7.04567C109.018 7.04567 109.66 6.39754 109.66 5.59803C109.66 4.79852 109.018 4.15039 108.226 4.15039C107.434 4.15039 106.792 4.79852 106.792 5.59803C106.792 6.39754 107.434 7.04567 108.226 7.04567Z" fill="#3182CE"/>
</g>
<defs>
<clipPath id="clip0">
<rect width="125" height="118" fill="white" transform="translate(0.5)"/>
</clipPath>
</defs>
</svg>
