<svg width="165" height="118" viewBox="0 0 165 118" fill="none" xmlns="http://www.w3.org/2000/svg">
<g clip-path="url(#clip0)">
<path opacity="0.3" d="M111.887 7.44827H100.148V11.8201H111.887V7.44827Z" fill="#3182CE"/>
<path opacity="0.3" d="M131.398 0H119.659V4.37181H131.398V0Z" fill="#3182CE"/>
<path opacity="0.3" d="M132.208 13.5202H120.469V17.892H132.208V13.5202Z" fill="#3182CE"/>
<path opacity="0.3" d="M94.6427 18.5397H82.9036V22.9115H94.6427V18.5397Z" fill="#3182CE"/>
<path opacity="0.3" d="M90.9185 36.5127H79.1794V40.8845H90.9185V36.5127Z" fill="#3182CE"/>
<path opacity="0.3" d="M108.649 36.1079H96.9095V40.4797H108.649V36.1079Z" fill="#3182CE"/>
<path d="M119.659 2.15833L111.887 9.53291L120.469 15.7061" stroke="#3F3D56" stroke-miterlimit="10"/>
<path d="M100.148 9.53296L88.7731 18.5397" stroke="#3F3D56" stroke-miterlimit="10"/>
<path d="M85.049 36.5093L88.7731 22.9115L102.779 36.1078" stroke="#3F3D56" stroke-miterlimit="10"/>
<path opacity="0.3" d="M32.7076 11.9521H20.9685V16.3239H32.7076V11.9521Z" fill="#3182CE"/>
<path opacity="0.3" d="M52.2188 4.50378H40.4797V8.87559H52.2188V4.50378Z" fill="#3182CE"/>
<path opacity="0.3" d="M53.0284 18.024H41.2892V22.3958H53.0284V18.024Z" fill="#3182CE"/>
<path opacity="0.3" d="M15.4633 23.0435H3.72418V27.4153H15.4633V23.0435Z" fill="#3182CE"/>
<path opacity="0.3" d="M11.7391 41.0165H0V45.3883H11.7391V41.0165Z" fill="#3182CE"/>
<path opacity="0.3" d="M29.4692 40.6117H17.7301V44.9835H29.4692V40.6117Z" fill="#3182CE"/>
<path d="M40.4797 6.66211L32.7076 14.0367L41.2892 20.2099" stroke="#3F3D56" stroke-miterlimit="10"/>
<path d="M20.9685 14.0367L9.59375 23.0435" stroke="#3F3D56" stroke-miterlimit="10"/>
<path d="M5.86957 41.013L9.59361 27.4153L23.5996 40.6116" stroke="#3F3D56" stroke-miterlimit="10"/>
<path d="M53.0284 20.2099H66.3412" stroke="#3F3D56" stroke-miterlimit="10"/>
<path d="M74.1672 17.9724H60.3652V22.3309H74.1672V17.9724Z" fill="#3182CE"/>
<path d="M74.185 20.1517H82.9035" stroke="#3F3D56" stroke-miterlimit="10"/>
<path d="M60.2991 20.1517L52.2188 6.66217" stroke="#3F3D56" stroke-miterlimit="10"/>
<path d="M100.391 118C135.695 118 164.315 111.626 164.315 103.762C164.315 95.8989 135.695 89.5245 100.391 89.5245C65.0862 89.5245 36.4661 95.8989 36.4661 103.762C36.4661 111.626 65.0862 118 100.391 118Z" fill="#F2F2F2"/>
<path d="M130.026 56.8945L123.793 88.1262H122.443L122.295 87.8955L121.865 87.2266L127.263 58.0511L128.082 57.708L130.026 56.8945Z" fill="#47465A"/>
<path opacity="0.1" d="M128.082 57.708L122.295 87.8955L121.865 87.2266L127.263 58.0511L128.082 57.708Z" fill="black"/>
<path d="M139.409 99.4365L137.806 99.9532L137.416 100.079L136.902 98.9224L128.082 58.6887L128.999 58.4831L130.926 58.0511L139.409 99.4365Z" fill="#47465A"/>
<path opacity="0.1" d="M137.806 99.9532L137.416 100.079L136.902 98.9224L128.082 58.6887L128.999 58.4831L137.806 99.9532Z" fill="black"/>
<path d="M63.0001 56.8945L61.5863 97.3801L59.9661 97.7399L59.8512 97.7656L59.4012 96.9303L60.301 57.28L61.1666 57.1566L63.0001 56.8945Z" fill="#47465A"/>
<path opacity="0.1" d="M61.1666 57.1566L59.9661 97.74L59.8512 97.7657L59.4012 96.9303L60.301 57.28L61.1666 57.1566Z" fill="black"/>
<path d="M71.4185 111.711L69.7425 112L69.5548 112.032L69.0408 110.94L60.8793 58.0511L61.1145 57.9798L62.3574 57.6013L71.4185 111.711Z" fill="#47465A"/>
<path opacity="0.1" d="M69.7425 112L69.5548 112.032L69.0408 110.94L60.8793 58.0511L61.1145 57.9798L69.7425 112Z" fill="black"/>
<path d="M106.892 53.6171L113.132 61.5905C113.346 61.8638 113.626 62.0775 113.946 62.211C114.267 62.3446 114.616 62.3936 114.961 62.3532L140.577 59.3531C141.069 59.2954 141.523 59.0589 141.853 58.6884C142.183 58.3179 142.365 57.8393 142.365 57.3433V51.4321L106.892 53.6171Z" fill="#7A799C"/>
<path d="M127.906 54.9023H129.641V57.4065C129.641 57.5775 129.573 57.7415 129.452 57.8624C129.331 57.9833 129.167 58.0512 128.996 58.0512H128.55C128.379 58.0512 128.215 57.9833 128.094 57.8624C127.974 57.7415 127.906 57.5775 127.906 57.4065V54.9023Z" fill="#47465A"/>
<path d="M60.8793 58.6939L67.1194 66.6673C67.3333 66.9406 67.6138 67.1543 67.9341 67.2878C68.2544 67.4214 68.6037 67.4703 68.9483 67.43L94.5644 64.4299C95.0569 64.3722 95.5111 64.1357 95.8407 63.7652C96.1704 63.3947 96.3525 62.916 96.3525 62.4201V56.5089L60.8793 58.6939Z" fill="#7A799C"/>
<path d="M81.8934 59.9791H83.6285V62.4833C83.6285 62.6543 83.5606 62.8182 83.4396 62.9391C83.3187 63.0601 83.1548 63.128 82.9838 63.128H82.5381C82.3671 63.128 82.2031 63.0601 82.0822 62.9391C81.9613 62.8182 81.8934 62.6543 81.8934 62.4833V59.9791H81.8934Z" fill="#47465A"/>
<path d="M68.0486 62.732L144.244 53.8567C144.483 53.8288 144.707 53.7244 144.883 53.5592C145.058 53.3939 145.175 53.1765 145.217 52.9391C145.259 52.7018 145.224 52.4573 145.116 52.2418C145.008 52.0263 144.833 51.8514 144.618 51.743L130.988 44.8882C128.304 43.5381 125.289 42.9828 122.3 43.2877L54.6063 50.19C54.3643 50.2153 54.1343 50.3083 53.9426 50.4583C53.751 50.6082 53.6054 50.8092 53.5227 51.038C53.4399 51.2669 53.4233 51.5144 53.4747 51.7523C53.5261 51.9902 53.6434 52.2088 53.8133 52.383L61.6962 60.4707C62.512 61.3077 63.5088 61.9468 64.6099 62.3387C65.711 62.7307 66.8873 62.8653 68.0486 62.732V62.732Z" fill="#47465A"/>
<path d="M152.627 52.6538L151.811 52.2033C151.811 52.2033 150.932 52.851 150.215 55.5796C149.498 58.3083 151.554 55.6092 151.554 55.6092L152.454 53.7456L152.627 52.6538Z" fill="#47465A"/>
<path d="M143.907 77.6514C143.907 77.6514 143.072 81.5715 142.686 82.6639C142.497 83.1986 141.585 83.6876 140.573 84.0617C139.676 84.3957 138.748 84.638 137.802 84.7846C136.71 84.9131 122.7 82.7282 115.888 81.2501C111.299 80.2547 110.706 79.1128 110.808 78.474C110.841 78.2838 110.932 78.1086 111.069 77.9727C111.069 77.9727 117.816 73.4101 120.194 71.2251C122.572 69.0402 127.263 70.7753 132.404 71.675C137.545 72.5746 143.907 77.6514 143.907 77.6514Z" fill="#47465A"/>
<path d="M151.811 52.2033C151.811 52.2033 154.96 54.2597 144.357 58.501C144.357 58.501 138.594 61.7505 139.344 75.1364C139.379 75.7384 139.563 76.3223 139.878 76.8365C140.972 78.6359 143.316 83.1908 139.409 83.7564V84.7846C139.409 84.7846 146.478 81.2501 147.249 78.2297C148.02 75.2094 150.59 58.4368 151.876 56.8945C153.161 55.3522 153.996 52.9102 151.811 52.2033Z" fill="#47465A"/>
<path opacity="0.1" d="M140.573 84.0617C139.676 84.3958 138.748 84.638 137.802 84.7846C136.71 84.9132 122.7 82.7282 115.888 81.2501C111.299 80.2547 110.706 79.1127 110.808 78.474C113.824 79.5054 123.619 82.779 127.134 83.0495C131.312 83.3708 139.292 84.2641 139.896 83.6568C140.129 83.4229 140.367 83.6697 140.573 84.0617Z" fill="black"/>
<path d="M103.871 110.811L109.976 82.921C109.976 82.921 111.069 79.9649 113.575 80.0934L115.888 81.2501C115.888 81.2501 112.033 80.3505 111.197 83.3066C110.362 86.2627 105.028 110.811 105.028 110.811H103.871Z" fill="#47465A"/>
<path d="M118.523 98.087L120.965 81.0573H122.058L119.551 98.087H118.523Z" fill="#47465A"/>
<path d="M141.915 114.731L139.601 88.1263C139.601 88.1263 139.601 85.8771 140.758 84.7846C141.915 83.6921 145.649 80.5757 145.649 80.5757C145.649 80.5757 146.606 80.3504 147.377 82.5354C148.148 84.7203 153.482 106.57 153.482 106.57L152.454 107.02L145.835 81.8285L141.272 86.1341C141.272 86.1341 140.373 87.7407 140.822 89.2187C141.272 90.6968 142.943 114.731 142.943 114.731H141.915Z" fill="#47465A"/>
<path d="M134.782 84.142L140.565 85.8128L141.851 84.5918L138.509 84.142H134.782Z" fill="#47465A"/>
<path d="M83.3654 37.2367L84.3032 51.3036L104.803 49.3115L103.987 35.5605C103.976 35.3763 103.929 35.1962 103.847 35.0307C103.766 34.8652 103.652 34.7178 103.512 34.597C103.373 34.4762 103.211 34.3845 103.035 34.3274C102.86 34.2702 102.675 34.2487 102.491 34.2642L84.6295 35.7666C84.2681 35.797 83.9331 35.9681 83.6967 36.2431C83.4603 36.518 83.3413 36.8749 83.3654 37.2367Z" fill="#7A799C"/>
<path d="M111.679 53.3599L91.2436 55.5893L90.4724 55.6734L84.496 51.8178V50.9822L104.803 49.1534L111.679 53.3599Z" fill="#7A799C"/>
<path opacity="0.1" d="M91.2436 55.5893L90.4724 55.6734L84.496 51.8178V51.0697L91.2436 55.5893Z" fill="black"/>
<path d="M84.7531 37.1014L85.46 49.6327L103.454 47.9619L102.811 35.7519L84.7531 37.1014Z" fill="#9493B6"/>
<path opacity="0.1" d="M95.485 53.1029L97.6699 54.5811L104.289 53.9383L102.04 52.5246L95.485 53.1029Z" fill="black"/>
<path d="M86.5524 51.3036L89.3157 53.3599L106.988 51.6892L103.839 49.6327L86.5524 51.3036Z" fill="#9493B6"/>
<path d="M130.958 32.3139H117.913V45.3593H130.958V32.3139Z" fill="#FF6584"/>
<path opacity="0.1" d="M130.958 32.3139H117.913V45.3593H130.958V32.3139Z" fill="black"/>
<path d="M122.405 38.351C122.405 38.351 124.246 43.335 122.405 44.2552C120.565 45.1753 129 44.2552 129 44.2552L131.377 42.3382C131.377 42.3382 126.009 40.8047 126.776 37.2775C127.543 33.7503 122.405 38.351 122.405 38.351Z" fill="#FBBEBE"/>
<path opacity="0.1" d="M122.405 38.351C122.405 38.351 124.246 43.335 122.405 44.2552C120.565 45.1753 129 44.2552 129 44.2552L131.377 42.3382C131.377 42.3382 126.009 40.8047 126.776 37.2775C127.543 33.7503 122.405 38.351 122.405 38.351Z" fill="black"/>
<path d="M107.3 88.3452C107.3 88.3452 114.201 98.0833 113.051 100.767C111.9 103.451 112.514 105.138 110.214 106.058C107.913 106.978 107.3 108.665 109.293 108.588C111.287 108.512 113.894 107.975 114.278 107.285C114.661 106.595 115.581 103.297 116.885 102.837C118.188 102.377 120.642 100.614 118.878 98.4667C117.115 96.3197 112.671 88.4116 113.014 87.6116C113.357 86.8116 107.3 88.3452 107.3 88.3452Z" fill="#FBBEBE"/>
<path d="M121.715 69.0989C121.715 69.0989 107.453 70.0191 103.773 73.4696C100.092 76.9201 106.993 89.802 107.76 89.9554C108.527 90.1087 114.508 89.4953 114.278 87.8084C114.047 86.1215 109.984 79.2204 109.984 79.2204C109.984 79.2204 115.274 77.3035 118.188 76.8434C121.102 76.3834 124.322 74.2364 124.322 74.2364L121.715 69.0989Z" fill="#9493B6"/>
<path d="M115.198 66.9519C115.198 66.9519 115.428 75.4632 117.575 75.77C119.722 76.0767 117.575 69.2523 117.575 69.2523L117.498 66.6452L115.198 66.9519Z" fill="#FBBEBE"/>
<path d="M121.715 44.6386C121.715 44.6386 117.728 43.4884 116.961 46.5556C116.194 49.6227 115.964 60.2043 115.964 60.2043L114.584 68.6389C114.584 68.6389 117.115 67.8721 117.651 68.2555L120.872 64.1915L121.715 44.6386Z" fill="#3182CE"/>
<path opacity="0.1" d="M121.715 44.6386C121.715 44.6386 117.728 43.4884 116.961 46.5556C116.194 49.6227 115.964 60.2043 115.964 60.2043L114.584 68.6389C114.584 68.6389 117.115 67.8721 117.651 68.2555L120.872 64.1915L121.715 44.6386Z" fill="black"/>
<path d="M127.163 89.9781C127.163 89.9781 129.843 95.2462 131.453 95.1695C133.064 95.0928 134.597 94.096 135.364 97.2398C136.131 100.384 135.211 99.5402 136.131 101.38C137.051 103.221 137.204 106.441 135.441 107.208C133.677 107.975 132.067 108.051 131.99 107.208C131.914 106.365 133.524 106.365 131.683 103.374C129.843 100.384 125.933 94.9395 124.322 94.4027C122.712 93.866 127.163 89.9781 127.163 89.9781Z" fill="#FBBEBE"/>
<path d="M134.137 65.9551C134.137 65.9551 139.658 75.1565 136.054 77.8403C132.45 80.524 121.715 85.6615 121.715 85.6615C121.715 85.6615 127.466 89.5721 127.773 90.8756C128.08 92.1791 125.013 95.7063 123.939 95.783C122.866 95.8597 119.722 92.2558 116.348 91.3356C112.974 90.4155 110.904 83.8212 114.584 81.3675C118.265 78.9138 121.715 74.8498 121.715 74.8498L120.642 68.9464L134.137 65.9551Z" fill="#9493B6"/>
<path d="M129.352 35.27C129.352 38.5308 126.011 41.2264 122.75 41.2264C121.185 41.2264 119.683 40.6043 118.576 39.4971C117.468 38.3898 116.846 36.8881 116.846 35.3222C116.846 33.7563 117.468 32.2545 118.576 31.1473C119.683 30.04 121.185 29.418 122.75 29.418C126.011 29.418 129.352 32.0092 129.352 35.27Z" fill="#FBBEBE"/>
<path d="M124.246 43.7951C124.246 43.7951 129.536 41.4948 129.536 41.1881C129.536 40.8814 132.604 41.8782 133.294 42.4916C133.984 43.105 134.367 43.0284 134.827 44.2552C135.287 45.482 132.527 56.9071 132.527 56.9071C132.527 56.9071 134.06 65.7251 134.904 66.5686C135.747 67.412 128.08 68.6389 128.08 68.6389C128.08 68.6389 123.019 69.559 122.175 69.9424C121.332 70.3258 119.798 70.8625 120.105 69.9424C120.412 69.0223 121.715 68.3322 119.492 67.182C119.492 67.182 120.258 63.4248 119.492 61.7378C118.725 60.0509 115.198 53.9166 118.035 49.4693C120.872 45.022 122.175 43.4117 122.175 43.4117C122.175 43.4117 123.172 44.2552 124.246 43.7951Z" fill="#3182CE"/>
<path d="M125.933 64.7283C125.933 64.7283 119.952 67.381 118.15 67.6265C116.348 67.8721 110.904 69.2523 113.894 70.4791C116.885 71.706 121.409 69.8657 121.409 69.8657L127.773 67.182L125.933 64.7283Z" fill="#FBBEBE"/>
<path opacity="0.1" d="M132.372 43.5599C132.372 43.5599 134.58 42.4916 135.194 46.2488C135.807 50.0061 137.954 61.8912 135.194 63.6548C132.433 65.4184 126.069 68.2555 126.069 68.2555C126.069 68.2555 122.312 65.7251 124.076 64.805C125.839 63.8848 130.056 61.2778 130.67 60.3576C131.283 59.4375 131.903 49.1669 130.83 47.48C129.756 45.793 132.372 43.5599 132.372 43.5599Z" fill="black"/>
<path d="M132.22 42.645C132.22 42.645 135.287 42.4916 135.901 46.2488C136.514 50.0061 138.661 61.8912 135.901 63.6548C133.14 65.4184 126.776 68.2555 126.776 68.2555C126.776 68.2555 123.019 65.7251 124.782 64.805C126.546 63.8848 130.763 61.2778 131.377 60.3576C131.99 59.4375 130.917 49.8527 129.843 48.1658C128.77 46.4789 132.22 42.645 132.22 42.645Z" fill="#3182CE"/>
<path d="M121.296 25.3832C120.355 25.5113 119.345 25.8556 118.871 26.6791C118.64 27.0821 118.565 27.5548 118.386 27.984C117.893 29.1685 116.697 29.8758 115.833 30.8241C114.707 32.06 114.148 33.9224 114.812 35.4567C115.069 36.0508 115.487 36.5598 115.803 37.1245C116.687 38.6998 116.734 40.5917 116.759 42.3977L116.808 45.9486C116.816 46.4908 116.822 47.044 116.659 47.5611C116.495 48.0782 116.131 48.5625 115.614 48.7258C116.184 48.9235 116.805 48.925 117.376 48.7299C117.947 48.5347 118.437 48.1542 118.768 47.6488C118.838 48.096 118.798 48.5537 118.651 48.9818C118.503 49.4098 118.253 49.7952 117.922 50.104C119.327 49.773 120.506 48.7505 121.249 47.5119C121.992 46.2733 122.336 44.8325 122.49 43.3966C122.572 42.6371 122.601 41.8517 122.361 41.1265C122.192 40.6158 121.897 40.1579 121.617 39.6984C120.896 38.5138 120.246 37.2538 120.014 35.8865C119.781 34.5191 120.015 33.0189 120.903 31.9533C121.243 31.5416 121.673 31.212 122.159 30.9893C122.644 30.7665 123.174 30.6562 123.709 30.6666C124.243 30.6873 124.763 30.8447 125.219 31.1239C125.675 31.4031 126.052 31.7947 126.313 32.2612C126.518 32.6473 126.81 33.1706 127.226 33.0349C127.303 33.0023 127.378 32.9654 127.451 32.9244C127.915 32.7135 128.441 33.1296 128.646 33.5961C129.29 35.0673 128.103 36.6734 127.98 38.275C127.866 39.7648 128.696 41.1699 129.689 42.2865C131.404 44.2073 133.644 45.5836 136.133 46.2455C135.768 46.1537 135.442 45.9507 135.198 45.6648C136.21 45.7053 137.223 45.6204 138.214 45.412C137.135 44.599 136.048 43.779 135.147 42.7721C134.247 41.7652 133.533 40.5469 133.339 39.21C133.078 37.4158 133.747 35.4728 132.983 33.8286C132.284 32.3254 130.552 31.4854 129.919 29.9533C129.276 28.3971 128.86 27.0451 127.158 26.3676C125.301 25.6282 123.303 25.1101 121.296 25.3832Z" fill="#FF6584"/>
</g>
<defs>
<clipPath id="clip0">
<rect width="164.315" height="118" fill="white"/>
</clipPath>
</defs>
</svg>
