<svg width="119" height="118" viewBox="0 0 119 118" fill="none" xmlns="http://www.w3.org/2000/svg">
<g clip-path="url(#clip0)">
<path d="M80.6266 31.7206C82.0531 32.4724 83.4475 33.2417 84.8099 34.0284" stroke="#2F2E41" stroke-miterlimit="10"/>
<path d="M54.0797 27.0627C60.302 28.4059 67.0953 30.7247 73.9388 33.9972C78.8956 36.3518 83.6386 39.1309 88.1146 42.3033" stroke="#2F2E41" stroke-miterlimit="10"/>
<path d="M33.3682 117.707H97.1693" stroke="#3F3D56" stroke-miterlimit="10"/>
<path d="M48.2574 26.0685C50.1272 26.298 52.0737 26.6296 54.0797 27.0626" stroke="#2F2E41" stroke-miterlimit="10"/>
<path d="M29.9588 45.5454C26.5043 40.4984 25.3176 35.7299 27.0925 32.0306C29.0556 27.939 34.3104 25.846 41.4334 25.6919" stroke="#2F2E41" stroke-miterlimit="10"/>
<path d="M102.705 56.8183C105.584 61.4457 106.478 65.7841 104.835 69.207C103.39 72.2193 100.161 74.1483 95.7154 75.0179" stroke="#2F2E41" stroke-miterlimit="10"/>
<path d="M88.1146 42.3033C91.0002 44.3465 93.7277 46.6034 96.2741 49.055" stroke="#2F2E41" stroke-miterlimit="10"/>
<path d="M28.0461 19.777C33.7803 18.5472 41.2006 18.7658 49.4995 20.399" stroke="#2F2E41" stroke-miterlimit="10"/>
<path d="M111.504 56.8177C114.071 60.5614 115.65 64.1841 116.062 67.4833" stroke="#2F2E41" stroke-miterlimit="10"/>
<path d="M84.8099 34.0284C87.3848 35.5147 89.8347 37.052 92.1595 38.6401" stroke="#2F2E41" stroke-miterlimit="10"/>
<path d="M88.4999 89.1687C87.8414 89.2058 87.2062 89.4254 86.6657 89.8027C86.1252 90.18 85.7006 90.7002 85.4396 91.3049C84.6744 93.1515 85.6597 95.3207 87.1387 96.6674C88.6178 98.014 90.5178 98.7837 92.2441 99.7954C94.5628 101.154 96.6464 103.041 97.8066 105.462C98.9667 107.884 99.0901 110.883 97.7264 113.197C96.4606 115.344 94.159 116.629 91.9639 117.814" stroke="#3F3D56" stroke-miterlimit="10"/>
<path d="M90.4493 90.6404C91.9424 90.6404 93.1528 90.0535 93.1528 89.3295C93.1528 88.6055 91.9424 88.0186 90.4493 88.0186C88.9563 88.0186 87.7459 88.6055 87.7459 89.3295C87.7459 90.0535 88.9563 90.6404 90.4493 90.6404Z" fill="#57B894"/>
<path d="M92.6121 99.277C94.1052 99.277 95.3156 98.6901 95.3156 97.9661C95.3156 97.2421 94.1052 96.6552 92.6121 96.6552C91.1191 96.6552 89.9087 97.2421 89.9087 97.9661C89.9087 98.6901 91.1191 99.277 92.6121 99.277Z" fill="#57B894"/>
<path d="M87.6687 100.665C89.1617 100.665 90.3721 100.078 90.3721 99.3542C90.3721 98.6302 89.1617 98.0432 87.6687 98.0432C86.1756 98.0432 84.9652 98.6302 84.9652 99.3542C84.9652 100.078 86.1756 100.665 87.6687 100.665Z" fill="#57B894"/>
<path d="M95.3928 107.914C96.8859 107.914 98.0962 107.327 98.0962 106.603C98.0962 105.879 96.8859 105.292 95.3928 105.292C93.8997 105.292 92.6893 105.879 92.6893 106.603C92.6893 107.327 93.8997 107.914 95.3928 107.914Z" fill="#57B894"/>
<path d="M100.8 107.914C102.293 107.914 103.503 107.327 103.503 106.603C103.503 105.879 102.293 105.292 100.8 105.292C99.3066 105.292 98.0962 105.879 98.0962 106.603C98.0962 107.327 99.3066 107.914 100.8 107.914Z" fill="#57B894"/>
<path d="M74.0126 38.2634H75.5356C75.5356 38.2634 76.9317 49.0333 75.9163 50.0469C74.901 51.0605 72.1089 51.694 71.7281 50.0469C71.3474 48.3997 71.7281 42.3179 71.7281 42.3179L74.0126 38.2634Z" fill="#3182CE"/>
<path d="M64.0498 39.7205C69.1666 39.7205 73.3145 34.8703 73.3145 28.8873C73.3145 22.9043 69.1666 18.0541 64.0498 18.0541C58.933 18.0541 54.785 22.9043 54.785 28.8873C54.785 34.8703 58.933 39.7205 64.0498 39.7205Z" fill="#2F2E41"/>
<path d="M61.9556 30.9146C61.9556 30.9146 62.4633 35.0958 60.9403 35.9827C59.4173 36.8697 62.7171 41.9378 62.7171 41.9378L66.6515 42.9515L69.3167 39.2771L68.8091 35.4759C68.8091 35.4759 65.7631 32.435 67.1592 29.6475L61.9556 30.9146Z" fill="#FFC1C7"/>
<path opacity="0.1" d="M61.9556 30.9146C61.9556 30.9146 62.4633 35.0958 60.9403 35.9827C59.4173 36.8697 62.7171 41.9378 62.7171 41.9378L66.6515 42.9515L69.3167 39.2771L68.8091 35.4759C68.8091 35.4759 65.7631 32.435 67.1592 29.6475L61.9556 30.9146Z" fill="black"/>
<path d="M56.2445 76.3026C56.2445 76.3026 54.7215 90.1133 56.2445 93.4077C57.7675 96.702 61.8288 105.951 61.8288 105.951L60.5596 108.612L63.9863 107.852L65.3824 105.191C65.3824 105.191 63.7325 98.7292 63.4786 96.4486C63.2248 94.1679 61.3211 89.9866 61.3211 89.9866L64.8747 74.9088L56.2445 76.3026Z" fill="#FFC1C7"/>
<path d="M68.3014 73.994C68.3014 73.994 68.4283 87.9315 69.3167 90.0934L68.8091 108.972L71.6012 109.344C71.6012 109.344 75.6625 93.5065 75.0279 89.7053C74.3933 85.9042 75.1548 72.2202 75.1548 72.2202L68.3014 73.994Z" fill="#FFC1C7"/>
<path d="M64.0498 32.6251C66.7133 32.6251 68.8725 30.4694 68.8725 27.8103C68.8725 25.1512 66.7133 22.9955 64.0498 22.9955C61.3862 22.9955 59.227 25.1512 59.227 27.8103C59.227 30.4694 61.3862 32.6251 64.0498 32.6251Z" fill="#FFC1C7"/>
<path d="M80.4853 75.7679C80.4853 75.7679 77.0586 78.0485 75.6625 76.4014C74.2665 74.7542 57.1329 77.415 54.9754 76.9082C52.8178 76.4014 56.1176 68.2923 56.1176 64.1111C56.1176 60.9828 57.2548 56.2238 57.8272 54.0242C58.0201 53.2842 58.1483 52.8344 58.1483 52.8344C58.1483 52.8344 59.4504 49.1359 59.2067 47.599C59.1902 47.4825 59.1582 47.3687 59.1116 47.2607C59.0912 47.2155 59.0661 47.1726 59.0367 47.1327C58.4287 46.3231 56.6862 40.4187 56.0097 37.8833C55.8993 37.5081 55.8083 37.1275 55.7369 36.743C55.7369 36.3629 60.4327 35.2225 61.6067 35.1681C62.7819 35.1136 63.0979 36.743 63.0979 36.743C63.4787 36.9964 65.2555 41.431 65.2555 41.431L66.9054 37.2498C66.9054 37.2498 66.7785 36.3629 66.6516 36.3629C66.5246 36.3629 68.5286 35.1668 68.5286 35.1668C68.5286 35.1668 70.5859 36.6163 71.7282 36.3629C72.8704 36.1095 75.5356 38.3901 75.5356 38.3901C75.5356 38.3901 70.8397 50.1736 72.7435 52.7077C74.6472 55.2418 80.4853 75.7679 80.4853 75.7679Z" fill="#3182CE"/>
<path d="M65.0016 104.684C65.0016 104.684 62.8441 106.838 62.8441 107.092L61.0672 106.331C61.0672 106.331 60.3058 109.119 60.1788 109.499C60.0519 109.879 57.8944 113.3 55.7368 114.821C53.5793 116.341 55.7368 118.242 57.6405 117.862C59.5443 117.481 64.367 113.174 64.367 113.174C64.367 113.174 67.6668 113.174 68.8091 110.639C68.8091 110.639 65.7631 104.431 65.0016 104.684Z" fill="#2F2E41"/>
<path d="M71.3474 108.339C71.3474 108.339 68.087 105.974 67.8769 108.17C67.6668 110.366 67.6668 115.181 67.6668 115.181C67.6668 115.181 66.6515 118.348 69.8244 117.968C72.9973 117.588 73.2511 116.701 73.2511 116.701L71.7281 110.619V107.959L71.3474 108.339Z" fill="#2F2E41"/>
<path opacity="0.1" d="M59.0366 47.1327C58.4287 46.3231 56.6862 40.4187 56.0097 37.8833H56.6252C56.6252 37.8833 58.1711 43.9233 59.1115 47.2607C59.0912 47.2155 59.0661 47.1726 59.0366 47.1327Z" fill="black"/>
<path opacity="0.1" d="M67.413 55.4952C67.413 55.4952 65.6362 55.6219 59.1636 54.3548C58.7125 54.2684 58.2664 54.158 57.8271 54.0241C58.0201 53.2842 58.1482 52.8344 58.1482 52.8344C58.1482 52.8344 59.4504 49.1359 59.2067 47.599C59.51 48.6633 59.736 49.3817 59.7981 49.4134C60.052 49.5401 68.1745 50.9338 69.3168 51.4406C70.459 51.9475 67.413 55.4952 67.413 55.4952Z" fill="black"/>
<path opacity="0.1" d="M69.6974 38.9123C69.6974 38.9123 73.1981 38.4811 73.4149 39.0477C73.6318 39.6143 74.5202 45.0907 74.901 45.7928C75.2817 46.4948 75.4086 50.8478 73.8856 50.9882C72.3627 51.1286 70.332 49.584 70.7128 48.3203C71.0935 47.0565 69.6974 38.9123 69.6974 38.9123Z" fill="black"/>
<path d="M67.9207 50.5537C67.9207 50.5537 73.2511 51.1872 74.1395 50.5537C75.0279 49.9202 78.7084 49.9202 77.947 51.694C77.1855 53.4679 70.5859 53.5946 70.5859 53.5946H66.7784L67.9207 50.5537Z" fill="#FFC1C7"/>
<path d="M56.6252 36.9964H55.7368C55.7368 36.9964 53.96 37.3765 54.2138 42.9515C54.4677 48.5264 52.6909 52.2009 59.1635 53.4679C65.6362 54.735 67.413 54.6082 67.413 54.6082C67.413 54.6082 70.4589 51.0605 69.3167 50.5537C68.1745 50.0469 60.0519 48.6532 59.7981 48.5264C59.5442 48.3997 56.6252 36.9964 56.6252 36.9964Z" fill="#3182CE"/>
<path d="M73.3174 39.4972C73.3174 39.4972 71.0935 31.168 69.3167 31.168C67.5399 31.168 65.5093 31.5481 67.0323 33.1952C68.5552 34.8424 70.459 36.6163 70.5859 37.5032C70.7128 38.3901 71.2205 39.6572 71.2205 39.6572L73.3174 39.4972Z" fill="#FFC1C7"/>
<path d="M70.2051 38.9123C70.2051 38.9123 73.7057 38.4811 73.9226 39.0477C74.1395 39.6143 75.0279 45.0907 75.4086 45.7928C75.7894 46.4948 75.9163 50.8478 74.3933 50.9882C72.8704 51.1286 70.8397 49.584 71.2205 48.3203C71.6012 47.0565 70.2051 38.9123 70.2051 38.9123Z" fill="#3182CE"/>
<path d="M62.7806 27.8103C65.304 27.8103 67.3496 25.7681 67.3496 23.249C67.3496 20.7298 65.304 18.6876 62.7806 18.6876C60.2573 18.6876 58.2117 20.7298 58.2117 23.249C58.2117 25.7681 60.2573 27.8103 62.7806 27.8103Z" fill="#2F2E41"/>
<path d="M81.1917 74.8123C74.1015 73.6456 66.0804 71.1096 57.989 67.2404C48.7762 62.8348 40.9695 57.4167 35.4068 51.941" stroke="#2F2E41" stroke-miterlimit="10"/>
<path d="M52.4443 69.6235C46.1012 66.3426 40.3586 62.6951 35.4066 58.8976" stroke="#2F2E41" stroke-miterlimit="10"/>
<path d="M7.60462 18.3477C11.8045 18.3477 15.2092 14.9487 15.2092 10.7557C15.2092 6.56278 11.8045 3.16373 7.60462 3.16373C3.4047 3.16373 0 6.56278 0 10.7557C0 14.9487 3.4047 18.3477 7.60462 18.3477Z" fill="#3182CE"/>
<path d="M9.38843 15.2547C13.5884 15.2547 16.9931 11.8556 16.9931 7.66268C16.9931 3.46973 13.5884 0.0706787 9.38843 0.0706787C5.18852 0.0706787 1.78381 3.46973 1.78381 7.66268C1.78381 11.8556 5.18852 15.2547 9.38843 15.2547Z" stroke="#2F2E41" stroke-miterlimit="10"/>
<path d="M113.335 42.5952C115.778 42.5952 117.759 40.6176 117.759 38.1781C117.759 35.7386 115.778 33.7609 113.335 33.7609C110.891 33.7609 108.91 35.7386 108.91 38.1781C108.91 40.6176 110.891 42.5952 113.335 42.5952Z" fill="#F2F2F2"/>
<path d="M114.372 40.7957C116.816 40.7957 118.797 38.818 118.797 36.3785C118.797 33.939 116.816 31.9613 114.372 31.9613C111.929 31.9613 109.948 33.939 109.948 36.3785C109.948 38.818 111.929 40.7957 114.372 40.7957Z" stroke="#2F2E41" stroke-miterlimit="10"/>
<path d="M32.6222 90.5722C36.1349 90.5722 38.9825 87.7294 38.9825 84.2226C38.9825 80.7157 36.1349 77.8729 32.6222 77.8729C29.1096 77.8729 26.262 80.7157 26.262 84.2226C26.262 87.7294 29.1096 90.5722 32.6222 90.5722Z" fill="#F2F2F2"/>
<path d="M34.1141 87.9854C37.6268 87.9854 40.4743 85.1425 40.4743 81.6357C40.4743 78.1289 37.6268 75.286 34.1141 75.286C30.6015 75.286 27.7539 78.1289 27.7539 81.6357C27.7539 85.1425 30.6015 87.9854 34.1141 87.9854Z" stroke="#2F2E41" stroke-miterlimit="10"/>
</g>
<defs>
<clipPath id="clip0">
<rect width="118.868" height="118" fill="white"/>
</clipPath>
</defs>
</svg>
