<svg width="183" height="118" viewBox="0 0 183 118" fill="none" xmlns="http://www.w3.org/2000/svg">
<path d="M183 116.666H0V118H183V116.666Z" fill="#85848B"/>
<path d="M144.984 93.1164C144.984 94.1423 138.987 97.1333 131.865 97.1333C124.743 97.1333 119.193 94.1423 119.193 93.1164C119.193 92.0904 124.966 92.4208 132.095 92.4208C139.225 92.4208 144.984 92.0887 144.984 93.1164Z" fill="#504F60"/>
<path opacity="0.2" d="M144.984 93.1163C144.984 94.1423 138.987 97.1332 131.865 97.1332C124.743 97.1332 119.193 94.1423 119.193 93.1163" fill="black"/>
<path d="M73.2554 74.291C74.4114 74.4388 75.611 74.5327 76.7181 74.1745C76.8925 74.1206 77.0843 74.0006 77.0669 73.8267C77.0544 73.7635 77.0276 73.704 76.9884 73.6528C76.5711 73.0286 76.2204 72.3624 75.9423 71.6653C75.9312 71.6289 75.9086 71.5972 75.8778 71.5749C75.8417 71.5618 75.8022 71.5618 75.7662 71.5749C75.2553 71.7088 74.8142 72.0374 74.3068 72.1783C74.0481 72.249 73.7781 72.2691 73.5117 72.2374C73.2816 72.2113 72.9678 72.0217 72.7585 72.0461C72.8771 72.806 73.1665 73.5155 73.2554 74.291Z" fill="#3182CE"/>
<path d="M95.1179 72.3661C95.8798 71.8444 96.6696 71.2966 97.1195 70.4915C97.1516 70.4434 97.1703 70.3876 97.1735 70.3298C97.1659 70.273 97.1436 70.2191 97.109 70.1733C96.6805 69.4939 96.1289 68.9001 95.4823 68.4222C95.1449 68.6599 94.8401 68.9405 94.5756 69.2569C94.3838 69.4586 93.8538 69.7786 93.8486 70.0864C93.8486 70.2603 94.0508 70.462 94.145 70.608C94.2722 70.7958 94.3926 70.9871 94.5076 71.1819C94.5739 71.2775 95.1789 72.3278 95.1179 72.3661Z" fill="#3182CE"/>
<path d="M77.787 76.6194C77.8006 76.7986 77.7513 76.9769 77.6475 77.1237C77.5661 77.2054 77.4653 77.2652 77.3546 77.2976C75.7383 77.8749 73.8674 77.155 72.2547 77.7236C71.9234 77.8401 71.6095 78.0088 71.2765 78.1201C70.8795 78.2391 70.4699 78.3115 70.056 78.3357C69.4859 78.3896 68.9123 78.4244 68.3404 78.4401C67.9059 78.4707 67.4692 78.4326 67.0467 78.327C66.8354 78.2731 66.6378 78.1754 66.4669 78.0403C66.296 77.9051 66.1555 77.7356 66.0546 77.5428C65.9669 77.3699 65.9494 77.17 66.0058 76.9846C66.031 76.921 66.067 76.8622 66.1121 76.8107C66.2214 76.6884 66.3498 76.5845 66.4922 76.5029L67.0868 76.1204C67.3656 75.9237 67.6685 75.7636 67.9882 75.6439C68.2236 75.5674 68.4729 75.5343 68.7117 75.47C69.5469 75.2266 70.1851 74.5658 70.7779 73.9311L71.5869 73.0703C71.6625 72.9756 71.7584 72.899 71.8676 72.846C71.9798 72.8087 72.0991 72.7974 72.2163 72.813C73.0022 72.8689 73.761 73.1226 74.4219 73.5503C74.5908 73.6766 74.7733 73.7839 74.9659 73.8702C75.4401 74.0545 76.0486 73.9154 76.4863 73.6824C76.6938 73.5711 76.6484 73.5085 76.7356 73.3103C76.8228 73.1121 77.0355 72.9851 77.2203 73.166C77.2761 73.2285 77.3156 73.3037 77.3354 73.3851C77.5097 73.9589 77.4435 74.5762 77.4435 75.1779C77.4384 75.2719 77.4502 75.3662 77.4784 75.4561C77.5228 75.5468 77.576 75.6329 77.637 75.7135C77.6494 75.7348 77.6605 75.7568 77.6701 75.7795C77.7768 76.0459 77.8169 76.3342 77.787 76.6194Z" fill="#514E7F"/>
<path d="M77.7869 76.6194C77.8006 76.7985 77.7512 76.9768 77.6475 77.1237C77.5661 77.2053 77.4653 77.2651 77.3545 77.2976C75.7383 77.8749 73.8674 77.155 72.2546 77.7236C71.9234 77.8401 71.6095 78.0088 71.2765 78.1201C70.8795 78.2391 70.4699 78.3115 70.056 78.3357C69.4859 78.3896 68.9123 78.4244 68.3404 78.44C67.9059 78.4707 67.4692 78.4326 67.0467 78.327C66.8354 78.2731 66.6378 78.1754 66.4669 78.0402C66.296 77.9051 66.1555 77.7356 66.0546 77.5428C65.9669 77.3699 65.9494 77.17 66.0058 76.9846C66.031 76.921 66.067 76.8622 66.1121 76.8107C66.2063 77.0072 66.2743 77.268 66.3335 77.3619C66.4136 77.5011 66.5225 77.6216 66.653 77.7155C66.7835 77.8093 66.9326 77.8743 67.0902 77.9062C67.3262 77.9206 67.5629 77.8906 67.7877 77.8175C69.2522 77.4558 70.8092 77.4506 72.2163 76.9028C72.6993 76.7133 73.1596 76.4612 73.6669 76.3464C74.1743 76.2316 74.7131 76.2629 75.2361 76.2195C76.0626 76.1534 76.8629 75.9047 77.6771 75.7743C77.7822 76.0429 77.8199 76.333 77.7869 76.6194Z" fill="#464353"/>
<path d="M98.8194 72.26C98.7427 72.8721 98.3539 73.3989 97.9267 73.8458C97.4996 74.2927 97.0166 74.6944 96.6766 75.2091C96.2582 75.8473 96.0699 76.6385 95.5259 77.1776C95.3171 77.3736 95.0824 77.5403 94.8284 77.6731C94.5439 77.8406 94.2431 77.9787 93.9305 78.0853C93.118 78.3444 92.2428 78.2852 91.3936 78.2226C91.118 78.22 90.8451 78.1676 90.5881 78.0679C90.4712 78.0086 90.3592 77.94 90.2534 77.8627C90.0405 77.732 89.8614 77.5533 89.7303 77.341C89.6659 77.2256 89.6479 77.0901 89.6797 76.9619C89.7283 76.8207 89.8116 76.694 89.9221 76.5933C90.1132 76.3951 90.3183 76.2109 90.5358 76.0421C90.8343 75.8499 91.1033 75.6157 91.3344 75.3465C91.4761 75.1338 91.5805 74.8986 91.643 74.651C91.7665 74.2171 91.8419 73.771 91.8679 73.3207C91.8669 73.0215 91.8979 72.723 91.9603 72.4304C92.0893 71.9713 92.4311 71.5609 92.3927 71.0862C92.3772 71.0182 92.3833 70.9471 92.4101 70.8827C92.4507 70.8325 92.5073 70.7975 92.5705 70.7836C92.837 70.6777 93.118 70.6126 93.404 70.5906C93.5474 70.5807 93.6913 70.6028 93.8251 70.6551C93.959 70.7074 94.0796 70.7887 94.1781 70.8932C94.2967 71.0358 94.3751 71.241 94.5495 71.2966C94.6359 71.3201 94.7265 71.3237 94.8145 71.307C95.2434 71.2636 95.6967 71.2097 96.035 70.9332C96.1913 70.7933 96.317 70.6227 96.404 70.4321C96.491 70.2415 96.5375 70.0349 96.5406 69.8255C96.5406 69.6673 96.4691 69.5021 96.715 69.4777C96.8998 69.4534 97.0462 69.6516 97.1404 69.7733C97.4804 70.2272 97.8291 70.7019 97.9564 71.2549C98.0059 71.2357 98.0585 71.2257 98.1116 71.2253C98.2203 71.2244 98.3277 71.2496 98.4245 71.299C98.5214 71.3483 98.6048 71.4203 98.6677 71.5088C98.8066 71.7331 98.8604 71.9995 98.8194 72.26Z" fill="#514E7F"/>
<path d="M98.8194 72.26C98.7427 72.8721 98.3539 73.399 97.9267 73.8459C97.4996 74.2928 97.0166 74.6944 96.6766 75.2091C96.2582 75.8473 96.0699 76.6385 95.5259 77.1776C95.3171 77.3736 95.0824 77.5403 94.8284 77.6732C94.5439 77.8406 94.2431 77.9787 93.9305 78.0853C93.118 78.3444 92.2428 78.2853 91.3936 78.2227C91.118 78.22 90.8451 78.1676 90.5881 78.0679C90.4712 78.0086 90.3592 77.94 90.2534 77.8627C90.0405 77.732 89.8614 77.5533 89.7303 77.341C89.8937 77.2627 90.0721 77.22 90.2534 77.2158C90.63 77.2367 90.9054 77.5914 91.2664 77.701C91.7807 77.8558 92.2933 77.4941 92.8146 77.3706C93.1546 77.2906 93.5121 77.3115 93.8486 77.1967C94.129 77.0886 94.3881 76.932 94.614 76.7342C94.9236 76.5134 95.1991 76.2486 95.4317 75.9482C95.6249 75.6477 95.7856 75.3277 95.9112 74.9935C96.1865 74.353 96.5106 73.7345 96.8806 73.1433C96.9353 73.0497 97.0015 72.9633 97.0776 72.886C97.1596 72.8112 97.252 72.759 97.3444 72.693C97.6931 72.4304 97.8378 71.9974 97.9599 71.5731C97.9929 71.4441 98.0391 71.3189 98.0976 71.1992C98.2064 71.1983 98.3137 71.2236 98.4106 71.2729C98.5074 71.3223 98.5909 71.3942 98.6538 71.4827C98.8038 71.7123 98.8629 71.9894 98.8194 72.26Z" fill="#464353"/>
<path d="M62.2589 18.0446C62.6928 18.3689 63.05 18.7845 63.305 19.2618C63.5491 19.7383 64.9561 23.4352 64.8742 23.9725C65.3327 23.5117 67.1408 23.4369 67.6046 22.9761C67.7981 22.7831 68.8425 21.8197 68.9994 21.5954C69.1564 21.3711 70.3211 20.8998 70.4483 20.6633C70.9243 19.813 67.0728 16.5908 67.5662 15.751C67.5935 15.7124 67.6076 15.666 67.6063 15.6188C67.5951 15.5792 67.5727 15.5436 67.5418 15.5162C67.2262 15.1945 66.8078 14.9945 66.4277 14.7563C66.0476 14.5181 65.6814 14.1859 65.5786 13.7477C65.2161 13.9141 64.8834 14.1385 64.5935 14.412C63.8867 15.016 63.1922 15.6321 62.5099 16.2605C62.2432 16.5074 61.7271 16.836 61.6033 17.189C61.4568 17.5681 62.0043 17.8376 62.2589 18.0446Z" fill="#A1616A"/>
<path d="M68.4938 16.6761C67.9029 17.0721 67.3506 17.5227 66.8444 18.022C66.3667 18.4932 65.9133 19.0392 65.7983 19.6983C65.7494 19.9574 65.7564 20.2199 65.7163 20.4825C65.542 21.6215 64.5551 22.4562 64.1192 23.5221C63.993 23.8511 63.9001 24.1919 63.842 24.5394C63.7195 25.198 63.6525 25.8658 63.6415 26.5356C63.631 27.1842 64.2692 27.6311 64.5028 28.2363C64.7364 28.8414 64.7992 29.4639 64.9178 30.0847C65.1409 31.2567 65.5507 32.387 65.9639 33.5103C66.8235 35.8787 69.6097 42.4257 70.4693 44.7958C73.1038 44.1368 80.1163 42.6222 82.4492 41.2328C83.2268 40.7703 77.0529 35.5518 77.8846 35.1919C77.9321 35.1845 77.9773 35.1662 78.0165 35.1384C78.0558 35.1106 78.088 35.0741 78.1106 35.0318C78.1333 34.9895 78.1458 34.9425 78.1471 34.8945C78.1484 34.8465 78.1385 34.7989 78.1182 34.7554C77.2865 31.1281 74.6852 28.1476 73.5048 24.6159C73.095 23.3899 72.3593 22.3431 71.8013 21.1781C71.2957 20.1226 71.0254 18.9558 70.4204 17.9524C70.3064 17.7457 70.1571 17.5603 69.9793 17.4047C69.8284 17.2893 69.6653 17.1907 69.4929 17.1108C69.1476 16.9438 68.8268 16.8447 68.4938 16.6761Z" fill="#514E7F"/>
<path d="M62.3983 17.6325C64.6757 17.6325 66.5218 15.7912 66.5218 13.52C66.5218 11.2487 64.6757 9.40747 62.3983 9.40747C60.121 9.40747 58.2748 11.2487 58.2748 13.52C58.2748 15.7912 60.121 17.6325 62.3983 17.6325Z" fill="#A1616A"/>
<path d="M66.5933 15.4519C66.7988 15.2628 67.057 15.1404 67.3337 15.1006C67.6104 15.0609 67.8927 15.1057 68.1433 15.2293C68.4223 15.3736 68.6664 15.6658 68.6036 15.9718L70.6488 16.0031C70.9744 15.9942 71.2998 16.024 71.6182 16.0918C71.9388 16.1614 72.2249 16.3403 72.4273 16.5978C72.4517 16.6308 72.4796 16.6708 72.5214 16.6761C72.5554 16.6766 72.5887 16.6655 72.6156 16.6448C72.9302 16.4874 73.2846 16.4269 73.6338 16.4709C74.7392 16.5422 75.7609 17.0934 76.6275 17.782C76.7837 17.8891 76.905 18.0397 76.9762 18.215C77.0477 18.4463 76.9622 18.7366 77.1506 18.9018C77.1506 20.8146 77.8096 22.6022 78.249 24.4663C78.3274 24.7985 78.6465 25.0923 78.8679 25.3532C79.1415 25.6423 79.3649 25.975 79.5288 26.3374C79.9019 27.3042 79.3875 28.4414 79.7502 29.4118C79.9036 29.8221 80.2 30.1595 80.4476 30.516C80.774 30.9276 80.9803 31.4209 81.0439 31.9419C81.0596 32.1749 81.03 32.4096 81.0439 32.6374C81.0673 32.9507 81.1258 33.2604 81.2183 33.5608C81.3671 34.1219 81.5228 34.6824 81.6855 35.2423C81.9506 36.1465 82.2958 37.122 83.1083 37.6037C81.1468 37.9358 79.0789 38.261 77.2098 37.5811C76.9491 37.4924 76.7016 37.369 76.4741 37.2142C75.7993 36.7343 75.4732 35.9135 75.1821 35.138C74.8578 34.2685 74.5282 33.3834 74.462 32.4583C74.4626 32.1641 74.4209 31.8713 74.3382 31.5889C74.1481 31.0846 73.6408 30.7803 73.1805 30.5003C72.6607 30.2163 72.1898 29.8511 71.7856 29.4187C71.5851 29.2009 71.4315 28.9444 71.3343 28.6651C71.2371 28.3857 71.1985 28.0894 71.2207 27.7946C71.2556 27.5077 71.3689 27.2312 71.3794 26.9425C71.3898 26.6539 71.2608 26.3235 70.9836 26.247C69.5556 25.8157 68.8739 24.129 68.5566 22.6753C68.4196 21.9239 68.3583 21.1608 68.3735 20.3973L68.3543 18.914C68.1573 18.7352 67.9987 18.5183 67.8884 18.2764C67.7781 18.0346 67.7183 17.7729 67.7127 17.5072C67.7316 17.3523 67.7287 17.1954 67.704 17.0412C67.635 16.8528 67.5227 16.6831 67.3762 16.5456C67.0609 16.2229 66.7969 15.8541 66.5933 15.4519Z" fill="#464353"/>
<path d="M62.2013 20.1538C62.1542 20.6129 62.2588 21.0841 62.156 21.5345C62.1159 21.7084 62.0461 21.8823 61.9956 22.044C61.841 22.6922 61.9079 23.3734 62.1856 23.9794C62.463 24.5795 62.7951 25.1528 63.1777 25.6922C63.3071 25.8764 63.4137 26.0755 63.495 26.2852C63.561 26.5054 63.6019 26.7323 63.6171 26.9616C63.718 27.8825 63.88 28.7956 64.1018 29.6952C64.2971 30.4742 66.5149 37.1342 67.031 37.7515C67.1246 37.8882 67.2666 37.9845 67.4285 38.021C67.5452 38.0254 67.6613 38.0015 67.7667 37.9515L68.8129 37.5515C68.9018 37.5244 68.9843 37.4794 69.0552 37.4194C69.1533 37.3051 69.2065 37.1593 69.2052 37.009C69.2801 36.1604 67.0571 29.4535 66.7747 28.6518C65.9203 26.2313 64.7835 23.8977 64.2273 21.3919C64.0721 20.6964 63.9902 19.6252 63.4793 19.0705C63.2684 18.841 63.3398 18.9383 63.087 19.0583C62.9593 19.1136 62.8357 19.1781 62.7174 19.2513C62.5694 19.3539 62.4463 19.4882 62.357 19.6444C62.2677 19.8005 62.2145 19.9746 62.2013 20.1538Z" fill="#464353"/>
<path d="M65.3763 24.7463C65.657 26.2261 65.9465 27.7024 66.2342 29.1822L70.328 28.1128C70.3611 27.685 70.1327 27.2885 69.9793 26.8955C69.6062 25.9617 69.5975 24.9219 69.2958 23.962C69.0674 23.2317 68.6699 22.5605 68.4554 21.8249C68.3316 21.3971 68.2689 20.9555 68.1468 20.5225C68.0159 20.0973 67.8551 19.6818 67.6656 19.2792C67.4358 18.6952 67.1361 18.1411 66.7729 17.6289C66.2498 17.8237 65.6919 18.0498 65.3938 18.521C65.2408 18.7865 65.1536 19.0846 65.1392 19.3904C65.0677 20.3068 65.4007 21.2285 65.2909 22.1396C65.1778 23.0074 65.2066 23.8877 65.3763 24.7463Z" fill="#3182CE"/>
<path d="M70.396 44.4307C70.6262 45.3001 70.2931 46.2148 70.0211 47.0755C69.6116 48.372 69.3325 49.706 69.1877 51.0576C69.17 51.4016 69.1006 51.741 68.982 52.0644C68.853 52.3548 68.6333 52.6 68.4833 52.8765C68.0718 53.6034 68.0823 54.4902 68.1712 55.3214C68.2305 55.8691 68.3194 56.4152 68.4293 56.9542C68.5635 57.6133 68.7292 58.3019 68.5356 58.9453C68.8599 58.874 69.0796 59.293 69.0587 59.6217C69.0378 59.9503 68.9314 60.3172 69.0901 60.6007C69.4911 60.7468 69.4946 61.2962 69.4824 61.7223C69.489 62.461 69.5827 63.1964 69.7614 63.9133C70.3681 66.823 71.0121 69.7247 71.6932 72.6182C73.1665 73.0738 74.8874 73.5485 76.2927 72.9173C76.5543 72.8008 76.8158 72.6147 76.8751 72.333C76.8904 72.1812 76.8713 72.0279 76.8193 71.8844L76.1532 69.4673C75.9911 68.8831 75.8289 68.2797 75.9144 67.6797C75.9789 67.2329 76.1742 66.7512 75.9545 66.3564C75.8795 66.2208 75.7609 66.1147 75.6737 65.9861C75.325 65.4766 75.5081 64.7949 75.536 64.1776C75.5469 64.039 75.5375 63.8996 75.5081 63.7637C75.4604 63.6051 75.3936 63.4527 75.3093 63.3099C74.7589 62.2441 74.4946 61.0543 74.5422 59.8564C74.563 59.7036 74.5419 59.5479 74.4812 59.4061C74.4389 59.3475 74.401 59.2859 74.3678 59.2217C74.3418 59.1101 74.3547 58.993 74.4044 58.8896C74.2046 58.7384 74.0243 58.5632 73.8674 58.3679C73.9641 58.308 74.0459 58.2269 74.1066 58.1308C74.1673 58.0347 74.2053 57.9261 74.2177 57.8132C74.2301 57.7003 74.2167 57.5861 74.1783 57.4792C74.14 57.3722 74.0778 57.2754 73.9964 57.1959C74.0676 57.1816 74.1333 57.148 74.1864 57.0987C74.2395 57.0494 74.2778 56.9864 74.2971 56.9166C74.3165 56.8469 74.316 56.7732 74.2959 56.7037C74.2757 56.6342 74.2367 56.5716 74.183 56.523C74.0976 56.4638 73.9842 56.4378 73.9232 56.3491C73.8291 56.2204 73.9058 56.0413 73.9825 55.9039L74.3887 55.1718C74.6921 54.6276 74.7601 53.9546 75.0862 53.4329C75.5534 52.673 75.8586 51.8262 76.1602 50.988L77.3336 47.7589L78.1235 48.4423C78.3865 48.6427 78.607 48.8934 78.772 49.1796C78.8844 49.4625 78.9554 49.76 78.983 50.063C79.2725 51.8158 80.3779 53.3356 80.7876 55.0623C80.8783 55.4466 80.9393 55.85 81.1607 56.1787C81.24 56.2796 81.3111 56.3866 81.3734 56.4986C81.4311 56.6696 81.4612 56.8486 81.4624 57.029C81.4989 57.3822 81.6113 57.7234 81.7918 58.0294C81.9723 58.3355 82.2167 58.5992 82.5085 58.8027C82.8973 59.0687 83.3803 59.2513 83.5912 59.6721C83.6334 59.8024 83.692 59.9269 83.7656 60.0425C83.9539 60.2686 84.3601 60.2946 84.4403 60.5781C84.4857 60.7363 84.402 60.9259 84.4909 61.065C84.5414 61.1294 84.6082 61.1792 84.6844 61.2093L85.8195 61.7744C87.0888 62.4074 87.7374 63.8611 88.6737 64.9201C88.997 65.265 89.2834 65.6427 89.528 66.0469C89.9325 66.7686 90.1191 67.6745 90.8026 68.1336C90.9863 68.2286 91.1535 68.3525 91.2978 68.5005C91.5122 68.7822 91.4337 69.1769 91.4529 69.5317C91.4721 69.8864 91.7441 70.309 92.0824 70.2012C91.9638 70.6308 91.9638 71.0844 92.0824 71.514C93.5673 71.4379 94.9835 70.8659 96.103 69.8899C96.4343 69.6012 96.7533 69.2326 96.7568 68.7944C96.7619 68.7187 96.7449 68.6433 96.708 68.577C96.641 68.4914 96.5526 68.4249 96.4517 68.384C95.3899 67.8102 95.0708 66.4799 94.5338 65.4C94.0648 64.4471 93.3708 63.6264 92.7902 62.7413C91.5279 60.8372 90.6666 58.5331 88.7574 57.2759C88.3372 56.9994 87.849 56.7542 87.638 56.2969C87.5212 56.0413 87.5073 55.7492 87.4149 55.4848C87.3224 55.2205 87.101 54.9632 86.8186 54.9632C86.9755 54.5806 86.9441 54.1146 86.9545 53.7007C86.9653 53.5171 86.944 53.3329 86.8918 53.1565C86.8193 52.9666 86.7251 52.7858 86.6111 52.6174C86.1129 51.7763 85.8639 50.8116 85.8927 49.8352C85.9067 49.3326 85.9956 48.8144 85.8439 48.3345C85.7672 48.0928 85.6329 47.8719 85.5405 47.6389C85.4013 47.2167 85.3278 46.7757 85.3226 46.3313L85.218 44.6602C85.2022 44.1037 85.1297 43.5502 85.0018 43.0082C84.6531 41.711 84.3043 36.277 83.11 35.6649C81.9157 35.0528 79.8635 39.2348 78.5192 39.3165C77.9245 39.3412 77.3369 39.4544 76.7757 39.6522C75.8812 39.986 75.1315 40.6086 74.401 41.2172L71.9286 43.2882C71.4055 43.7177 70.9731 44.1281 70.396 44.4307Z" fill="#464353"/>
<path d="M58.5294 8.95362C59.0734 8.21285 60.0079 7.81985 60.9285 7.78681C61.8491 7.75377 62.7558 8.04243 63.5805 8.45107C63.8239 8.58913 64.084 8.69549 64.3546 8.76755C64.7905 8.85624 65.2752 8.73799 65.6692 8.94144C66.1923 9.21793 66.2934 9.92218 66.2481 10.5065C66.2028 11.0907 66.0929 11.7393 66.405 12.2454C66.5157 12.3897 66.6165 12.5413 66.7067 12.6992C66.8409 13 66.7624 13.3478 66.6822 13.666C66.4782 13.4921 66.3632 13.2296 66.1818 13.0279C66.0005 12.8261 65.6849 12.6905 65.46 12.8418C65.2351 12.9931 65.2386 13.2678 65.2264 13.5148C65.2142 13.7617 65.1514 14.0573 64.9178 14.1373C64.8202 14.1594 64.7182 14.1519 64.6249 14.1156C64.5317 14.0793 64.4515 14.016 64.3947 13.9338C63.9954 13.4469 64.1558 12.6696 63.76 12.1793C63.5351 11.9011 63.1603 11.7654 62.9528 11.4733C62.7889 11.2437 62.747 10.9516 62.6041 10.7047C62.4611 10.4578 62.1281 10.2769 61.9066 10.4473C61.8311 10.5193 61.768 10.6034 61.7201 10.696C61.582 10.8932 61.3813 11.0383 61.1503 11.1077C60.9193 11.1771 60.6717 11.1669 60.4473 11.0786C60.2758 10.9736 60.0903 10.8934 59.8963 10.8403C59.7693 10.834 59.6431 10.8632 59.5319 10.9246C59.4206 10.9861 59.3289 11.0774 59.2669 11.1881C59.1418 11.4094 59.0814 11.6612 59.0925 11.915C59.0925 12.2627 59.1553 12.6331 58.9566 12.9114C58.881 13.0161 58.7863 13.1057 58.6776 13.1757C58.3864 13.3617 57.9802 13.4869 57.7117 13.2748C57.6206 13.1902 57.5529 13.0838 57.5151 12.9656C57.4772 12.8475 57.4705 12.7216 57.4955 12.6001C57.5477 12.3581 57.6165 12.1199 57.7012 11.8871C57.8546 11.3481 57.6541 10.7412 57.8215 10.2334C57.9968 9.77617 58.2351 9.34543 58.5294 8.95362Z" fill="#464353"/>
<path d="M60.7385 21.2215C60.7123 21.3483 60.7257 21.48 60.7768 21.5989C60.8286 21.6799 60.8992 21.7472 60.9826 21.7954C61.5689 22.1597 62.2358 22.3752 62.9249 22.4231C63.0186 22.4247 63.1107 22.4486 63.1934 22.4927C63.3573 22.6005 63.3677 22.8404 63.3067 23.0317C63.2254 23.2122 63.1832 23.4077 63.1829 23.6056C63.2335 23.969 63.6659 24.1272 64.0303 24.1811C64.5412 24.2455 65.1008 24.2124 65.5053 23.8942C65.7794 23.645 65.9882 23.3328 66.1138 22.9848C67.1146 20.6912 67.4651 18.1558 68.4781 15.8692C68.5549 15.7199 68.6061 15.5589 68.6298 15.3927C68.6405 15.3096 68.6287 15.2251 68.5956 15.148C68.5625 15.071 68.5093 15.0042 68.4415 14.9545C68.2532 14.838 67.9603 14.9041 67.833 14.7215C67.7702 14.6294 67.7772 14.5042 67.7214 14.4068C67.6046 14.1999 67.2977 14.2329 67.0885 14.1129C66.9246 14.026 66.8113 13.8469 66.6282 13.8121C66.5383 13.807 66.4485 13.8229 66.3659 13.8585C66.2832 13.8942 66.2101 13.9485 66.1522 14.0173C65.5577 14.5702 65.2456 15.3545 64.9143 16.0953C64.4084 17.2307 63.8162 18.326 63.1428 19.3713C63.2213 19.2496 62.7662 18.328 62.5884 18.288C62.2763 18.2254 61.877 18.7714 61.7079 18.9749C61.1772 19.6166 60.8409 20.396 60.7385 21.2215Z" fill="#3182CE"/>
<path opacity="0.1" d="M67.0728 14.2746C66.9476 14.2767 66.8244 14.3069 66.7124 14.3628C66.6005 14.4188 66.5025 14.4992 66.4259 14.5981C66.2394 14.8398 66.2028 15.1597 66.1557 15.4675C65.997 16.4426 65.6481 17.3772 65.1287 18.2185" fill="black"/>
<path opacity="0.1" d="M67.962 14.9684C67.7891 14.9723 67.6202 15.021 67.472 15.1097C67.3237 15.1984 67.2011 15.3241 67.1164 15.4745C67.001 15.748 66.9292 16.0378 66.9037 16.3335C66.7542 16.989 66.4659 17.605 66.058 18.1402" fill="black"/>
<path d="M109.399 48.9639V46.8042C109.399 45.2144 108.765 43.6898 107.638 42.5657C106.511 41.4417 104.982 40.8102 103.388 40.8102H17.8679C16.2738 40.8102 14.745 41.4417 13.6176 42.5657C12.4902 43.6898 11.8566 45.2144 11.8562 46.8042V50.7863L109.399 48.9639Z" fill="#33323D"/>
<path d="M41.6588 38.2784C41.6588 38.2784 41.4147 53.3825 44.0997 58.3523C46.7848 63.322 47.9356 84.9418 47.9356 84.9418C47.9356 84.9418 76.0835 87.8457 95.6985 81.464C115.313 75.0822 157.051 72.4721 157.051 72.4721L150.017 25.1932C150.017 25.1932 115.27 22.9709 95.5032 32.3731C75.7365 41.7753 41.6588 38.2784 41.6588 38.2784Z" fill="#8DD070"/>
<path opacity="0.1" d="M41.6588 38.2784C41.6588 38.2784 41.4147 53.3825 44.0997 58.3523C46.7848 63.322 47.9356 84.9418 47.9356 84.9418C47.9356 84.9418 76.0835 87.8457 95.6985 81.464C115.313 75.0822 157.051 72.4721 157.051 72.4721L150.017 25.1932C150.017 25.1932 115.27 22.9709 95.5032 32.3731C75.7365 41.7753 41.6588 38.2784 41.6588 38.2784Z" fill="black"/>
<path d="M47.8885 43.7959C47.8885 43.7959 47.008 56.2586 49.2171 60.2407C51.4261 64.2228 51.529 81.9996 51.529 81.9996C51.529 81.9996 76.8611 83.1716 94.8808 77.0541C112.9 70.9367 150.767 66.9685 150.767 66.9685L146.464 28.3041C146.464 28.3041 115.132 27.9824 96.8457 36.5934C78.5593 45.2044 47.8885 43.7959 47.8885 43.7959Z" fill="#8DD070"/>
<path opacity="0.1" d="M96.5675 69.975C100.172 69.5272 102.313 62.9142 101.35 55.2044C100.387 47.4946 96.685 41.6076 93.0806 42.0553C89.4763 42.5031 87.3349 49.1161 88.2978 56.8259C89.2607 64.5357 92.9631 70.4227 96.5675 69.975Z" fill="black"/>
<path opacity="0.2" d="M130.967 2.16147C130.967 2.16147 97.2102 10.6821 81.2915 25.6801C65.3728 40.6781 31.8617 47.7798 31.8617 47.7798C31.8617 47.7798 36.2764 62.2283 40.3598 66.1373C44.4432 70.0464 52.1881 90.2732 52.1881 90.2732C52.1881 90.2732 79.8705 84.4201 96.5737 72.3382C113.277 60.2564 152.205 44.9975 152.205 44.9975L130.967 2.16147Z" fill="black"/>
<path d="M31.3543 45.6166C31.3543 45.6166 35.7673 60.0668 39.8472 63.9759C43.9271 67.8849 51.6755 88.11 51.6755 88.11C51.6755 88.11 79.3614 82.2587 96.0664 70.1768C112.771 58.0949 151.696 42.8413 151.696 42.8413L130.458 0C130.458 0 96.7028 8.52061 80.7841 23.5186C64.8654 38.5166 31.3543 45.6166 31.3543 45.6166Z" fill="#8DD070"/>
<path opacity="0.1" d="M31.3543 45.6166C31.3543 45.6166 35.7673 60.0668 39.8472 63.9759C43.9271 67.8849 51.6755 88.11 51.6755 88.11C51.6755 88.11 79.3614 82.2587 96.0664 70.1768C112.771 58.0949 151.696 42.8413 151.696 42.8413L130.458 0C130.458 0 96.7028 8.52061 80.7841 23.5186C64.8654 38.5166 31.3543 45.6166 31.3543 45.6166Z" fill="black"/>
<path d="M38.9754 48.9622C38.9754 48.9622 41.9726 61.0945 45.301 64.2072C48.6295 67.3198 54.1932 84.2045 54.1932 84.2045C54.1932 84.2045 78.6622 77.5654 93.9305 66.2278C109.199 54.8901 144.021 39.5409 144.021 39.5409L128.031 4.04645C128.031 4.04645 98.1133 13.327 83.3576 27.1199C68.6019 40.9129 38.9754 48.9622 38.9754 48.9622Z" fill="#8DD070"/>
<path opacity="0.1" d="M93.366 58.9797C96.6587 57.4505 96.6621 50.5012 93.3735 43.4581C90.0849 36.4149 84.7498 31.945 81.4571 33.4742C78.1644 35.0034 78.161 41.9527 81.4496 48.9959C84.7382 56.039 90.0733 60.509 93.366 58.9797Z" fill="black"/>
<path opacity="0.1" d="M111.708 51.0837V111.076C111.708 111.757 111.573 112.432 111.312 113.061C111.05 113.691 110.667 114.262 110.184 114.744C109.701 115.226 109.127 115.608 108.496 115.868C107.865 116.129 107.188 116.263 106.505 116.263H17.0607C15.6816 116.262 14.3591 115.716 13.3841 114.743C12.4091 113.77 11.8614 112.451 11.8614 111.076V45.0358C14.4244 45.9852 14.4244 45.9852 17.0607 45.9052H106.505C107.883 45.9052 109.205 46.4505 110.18 47.4213C111.156 48.3922 111.705 49.7093 111.708 51.0837Z" fill="black"/>
<path d="M111.708 51.8471V111.839C111.707 113.215 111.159 114.534 110.183 115.507C109.208 116.48 107.885 117.026 106.505 117.026H17.0607C15.6816 117.026 14.3591 116.479 13.3841 115.506C12.4091 114.534 11.8614 113.214 11.8614 111.839V45.7974C14.4244 46.7451 14.4244 46.7451 17.0607 46.6669H106.505C107.883 46.6669 109.205 47.2124 110.181 48.1836C111.156 49.1548 111.705 50.4724 111.708 51.8471Z" fill="#504F60"/>
<path opacity="0.1" d="M111.453 74.0267V93.212H92.7972C90.2687 93.178 87.8553 92.1524 86.0793 90.3571C84.3033 88.5619 83.3075 86.1413 83.3075 83.6193C83.3075 81.0973 84.3033 78.6768 86.0793 76.8815C87.8553 75.0862 90.2687 74.0606 92.7972 74.0267H111.453Z" fill="black"/>
<path d="M111.708 73.5155V92.7042H93.0518C90.5233 92.6703 88.1098 91.6447 86.3338 89.8494C84.5578 88.0542 83.5621 85.6336 83.5621 83.1116C83.5621 80.5896 84.5578 78.1691 86.3338 76.3738C88.1098 74.5785 90.5233 73.5529 93.0518 73.519L111.708 73.5155Z" fill="#33323D"/>
<path opacity="0.1" d="M93.9462 87.3606C96.0175 87.3606 97.6966 85.6859 97.6966 83.6202C97.6966 81.5544 96.0175 79.8798 93.9462 79.8798C91.8749 79.8798 90.1958 81.5544 90.1958 83.6202C90.1958 85.6859 91.8749 87.3606 93.9462 87.3606Z" fill="black"/>
<path d="M94.2008 86.8528C96.2721 86.8528 97.9512 85.1782 97.9512 83.1124C97.9512 81.0467 96.2721 79.3721 94.2008 79.3721C92.1295 79.3721 90.4504 81.0467 90.4504 83.1124C90.4504 85.1782 92.1295 86.8528 94.2008 86.8528Z" fill="#3182CE"/>
<path d="M144.091 73.3503C144.239 74.9518 143.024 76.5064 143.378 78.0749C143.454 78.4105 143.599 78.727 143.651 79.066C143.798 79.9981 143.242 80.8797 142.71 81.6587L138.142 88.3431C137.959 88.6369 137.74 88.9068 137.49 89.1464C136.618 89.922 135.307 89.842 134.16 90.0733C133.353 90.2365 132.592 90.5723 131.928 91.0575C131.9 91.0811 131.882 91.1145 131.878 91.1507C131.875 91.1869 131.885 91.2233 131.907 91.2522C132.096 91.5097 132.348 91.7158 132.638 91.8516C132.928 91.9873 133.247 92.0485 133.567 92.0295C133.687 92.1878 133.567 92.419 133.392 92.5321C133.147 92.706 132.81 92.7477 132.761 93.1616C132.744 93.306 132.773 93.4522 132.845 93.5789C133.029 93.86 133.315 94.0589 133.643 94.1336C135.225 94.6153 136.934 93.7684 138.117 92.6155C139.301 91.4627 140.15 90.0072 141.312 88.8334C141.955 88.1848 142.686 87.6284 143.348 86.9989C144.67 85.7434 145.697 84.2167 146.689 82.6882C146.987 82.2274 147.287 81.7544 147.412 81.2205C147.538 80.6867 147.479 80.1476 147.62 79.6312C147.805 78.953 148.302 78.414 148.715 77.8453C149.526 76.7324 150.066 75.3709 149.96 74.0006C149.853 72.6304 149.001 71.2758 147.703 70.8098C147.301 70.6487 146.858 70.6219 146.439 70.7332C145.908 70.8967 145.515 71.3349 145.153 71.754L144.281 72.7538C144.064 72.9732 143.892 73.2332 143.775 73.519C143.719 73.6624 143.706 73.8189 143.737 73.9697C143.768 74.1205 143.842 74.2592 143.95 74.3693" fill="#FBBEBE"/>
<path opacity="0.05" d="M144.091 73.3503C144.239 74.9518 143.024 76.5064 143.378 78.0749C143.454 78.4105 143.599 78.727 143.651 79.066C143.798 79.9981 143.242 80.8797 142.71 81.6587L138.142 88.3431C137.959 88.6369 137.74 88.9068 137.49 89.1464C136.618 89.922 135.307 89.842 134.16 90.0733C133.353 90.2365 132.592 90.5723 131.928 91.0575C131.9 91.0811 131.882 91.1145 131.878 91.1507C131.875 91.1869 131.885 91.2233 131.907 91.2522C132.096 91.5097 132.348 91.7158 132.638 91.8516C132.928 91.9873 133.247 92.0485 133.567 92.0295C133.687 92.1878 133.567 92.419 133.392 92.5321C133.147 92.706 132.81 92.7477 132.761 93.1616C132.744 93.306 132.773 93.4522 132.845 93.5789C133.029 93.86 133.315 94.0589 133.643 94.1336C135.225 94.6153 136.934 93.7684 138.117 92.6155C139.301 91.4627 140.15 90.0072 141.312 88.8334C141.955 88.1848 142.686 87.6284 143.348 86.9989C144.67 85.7434 145.697 84.2167 146.689 82.6882C146.987 82.2274 147.287 81.7544 147.412 81.2205C147.538 80.6867 147.479 80.1476 147.62 79.6312C147.805 78.953 148.302 78.414 148.715 77.8453C149.526 76.7324 150.066 75.3709 149.96 74.0006C149.853 72.6304 149.001 71.2758 147.703 70.8098C147.301 70.6487 146.858 70.6219 146.439 70.7332C145.908 70.8967 145.515 71.3349 145.153 71.754L144.281 72.7538C144.064 72.9732 143.892 73.2332 143.775 73.519C143.719 73.6624 143.706 73.8189 143.737 73.9697C143.768 74.1205 143.842 74.2592 143.95 74.3693" fill="black"/>
<path d="M147.548 114.58C146.551 115.186 145.308 115.223 144.148 115.082C143.962 115.06 143.74 115.046 143.625 115.19C143.451 115.399 143.657 115.712 143.869 115.873C144.553 116.385 145.357 116.715 146.204 116.831C146.961 116.938 147.724 116.989 148.488 116.983C150.58 117.019 152.673 117.054 154.732 116.755C154.854 116.746 154.972 116.711 155.08 116.654C155.213 116.561 155.305 116.421 155.339 116.263C155.48 115.727 155.208 115.153 154.796 114.781C154.385 114.409 153.856 114.202 153.34 114.002L151.527 113.298C151.102 113.133 150.42 112.695 149.958 112.729C149.09 112.792 148.268 114.159 147.548 114.58Z" fill="#3F3D56"/>
<path opacity="0.05" d="M147.548 114.58C146.551 115.186 145.308 115.223 144.148 115.082C143.962 115.06 143.74 115.046 143.625 115.19C143.451 115.399 143.657 115.712 143.869 115.873C144.553 116.385 145.357 116.715 146.204 116.831C146.961 116.938 147.724 116.989 148.488 116.983C150.58 117.019 152.673 117.054 154.732 116.755C154.854 116.746 154.972 116.711 155.08 116.654C155.213 116.561 155.305 116.421 155.339 116.263C155.48 115.727 155.208 115.153 154.796 114.781C154.385 114.409 153.856 114.202 153.34 114.002L151.527 113.298C151.102 113.133 150.42 112.695 149.958 112.729C149.09 112.792 148.268 114.159 147.548 114.58Z" fill="black"/>
<path d="M148.819 90.5723C148.064 91.5739 147.283 92.7303 147.47 93.9701C147.571 94.6379 147.946 95.2274 148.221 95.8447C148.594 96.6828 148.79 97.5836 148.982 98.4808C149.264 99.792 149.548 101.107 149.721 102.439C149.918 103.943 148.992 108.295 148.907 109.81C148.886 110.175 148.842 110.57 148.587 110.832C148.488 110.937 148.356 111.02 148.31 111.156C148.284 111.286 148.305 111.422 148.371 111.538C148.797 112.495 149.667 113.208 150.638 113.614C151.609 114.021 153.951 114.724 155.009 114.76C155.148 114.776 155.29 114.757 155.42 114.707C155.561 114.621 155.672 114.494 155.738 114.343C156.496 112.896 155.767 107.753 155.778 106.12C155.788 104.758 156.111 103.405 156.052 102.046C156.003 100.954 155.703 99.8859 155.604 98.7973C155.429 97.0132 155.757 95.2204 156.086 93.4572C156.338 92.1043 156.59 90.7514 156.913 89.416C157.11 88.6004 157.338 87.7779 157.785 87.0702C158.133 86.5085 158.623 86.039 159.03 85.5052C160.157 84.0308 160.658 82.1733 160.424 80.3337C160.4 80.1598 157.809 80.9893 157.581 81.0884C156.649 81.4819 155.791 82.0318 155.046 82.7142C154.446 83.2846 153.973 84.0462 153.448 84.6844C152.706 85.5875 151.972 86.4969 151.248 87.4127C150.422 88.4596 149.612 89.5128 148.819 90.5723Z" fill="#464353"/>
<path opacity="0.05" d="M148.819 90.5115C148.064 91.5131 147.283 92.6712 147.47 93.9093C147.571 94.5788 147.946 95.1683 148.221 95.7856C148.594 96.622 148.79 97.5245 148.982 98.42C149.264 99.7329 149.548 101.047 149.721 102.378C149.918 103.884 148.992 108.234 148.907 109.749C148.886 110.114 148.842 110.511 148.587 110.773C148.488 110.876 148.356 110.959 148.31 111.095C148.284 111.226 148.305 111.361 148.371 111.477C148.797 112.436 149.667 113.147 150.638 113.564C151.609 113.981 153.951 114.345 155.009 114.38C155.149 114.395 155.29 114.376 155.42 114.326C155.562 114.241 155.672 114.115 155.738 113.964C156.496 112.517 155.767 107.704 155.778 106.069C155.788 104.706 156.111 103.355 156.052 101.993C156.003 100.901 155.703 99.8337 155.604 98.7469C155.429 96.9611 155.757 95.1683 156.087 93.405C156.338 92.0539 156.59 90.701 156.913 89.3638C157.11 88.5483 157.338 87.7258 157.785 87.018C158.133 86.4564 158.623 85.9869 159.03 85.453C160.158 83.9788 160.659 82.1212 160.424 80.2815C160.4 80.1077 157.809 80.9371 157.581 81.0362C156.649 81.431 155.792 81.9815 155.046 82.6638C154.446 83.2325 153.973 83.9941 153.449 84.6323C152.706 85.5353 151.972 86.4454 151.248 87.3623C150.422 88.401 149.612 89.4508 148.819 90.5115Z" fill="black"/>
<path d="M140.419 68.5126C142.756 68.5126 144.651 66.6231 144.651 64.2923C144.651 61.9615 142.756 60.072 140.419 60.072C138.082 60.072 136.187 61.9615 136.187 64.2923C136.187 66.6231 138.082 68.5126 140.419 68.5126Z" fill="#FBBEBE"/>
<path d="M144.23 64.115C144.621 64.7369 145.134 65.2739 145.737 65.694C146.341 66.1141 147.023 66.4085 147.744 66.5599L147.424 67.7162C146.874 69.7021 146.255 71.8027 144.717 73.1799C144.891 72.5069 144.668 71.7887 144.288 71.2045C143.908 70.6202 143.374 70.1611 142.851 69.7073L140.415 67.6032C140.345 67.5461 140.286 67.4766 140.241 67.398C140.181 67.2497 140.181 67.0838 140.241 66.9355C140.551 65.9721 141.437 65.3705 142.159 64.7201C142.521 64.3838 142.845 64.0082 143.123 63.6003C143.61 62.9082 143.911 63.6037 144.23 64.115Z" fill="#FBBEBE"/>
<path d="M134.845 60.0494L134.749 59.2565C135.417 59.4304 136.051 58.8635 136.478 58.2775C136.906 57.6915 137.301 57.0011 137.952 56.7559C138.742 56.4603 139.579 56.9298 140.333 57.3263C141.179 57.794 142.106 58.0951 143.066 58.2131C143.219 58.2182 143.37 58.2427 143.517 58.2862C144.009 58.4601 144.243 59.0756 144.314 59.6338C144.385 60.192 144.366 60.785 144.609 61.2823C144.783 61.6596 145.107 61.9396 145.306 62.3117C145.829 63.3098 145.324 64.6749 145.869 65.6539L144.513 64.414C144.389 64.301 144.215 64.1828 144.077 64.2784C143.969 64.3549 143.96 64.5201 143.916 64.6523C143.786 65.0383 143.301 65.1531 142.951 65.0001C142.6 64.847 142.344 64.5149 142.079 64.2123C141.479 63.5063 140.764 62.8856 139.927 62.5847C139.56 62.4479 139.169 62.3905 138.778 62.4163C138.387 62.4421 138.006 62.5505 137.661 62.7343C137.028 63.0907 136.564 63.9219 135.788 63.9515C134.724 63.9915 134.282 62.0161 133.79 61.2353C133.97 61.1003 134.096 60.9065 134.147 60.6877C134.198 60.469 134.171 60.2393 134.069 60.039C134.14 60.0094 134.829 59.9277 134.845 60.0494Z" fill="#464353"/>
<path d="M82.505 35.3762C82.165 35.6778 81.8507 36.007 81.5652 36.3604C81.2779 36.7187 81.125 37.1659 81.1328 37.6246C81.1343 37.7576 81.177 37.887 81.2549 37.995C81.2947 38.0467 81.3497 38.0847 81.4122 38.1037C81.4747 38.1227 81.5416 38.1218 81.6036 38.1011C81.6737 38.0654 81.7336 38.0128 81.7779 37.948C81.9622 37.7272 82.1578 37.5159 82.3638 37.3151C82.4388 37.2403 82.5381 37.1621 82.6393 37.1899C82.6846 37.2059 82.7253 37.2328 82.7578 37.2681C82.8751 37.3693 82.9605 37.5021 83.0037 37.6507C83.0647 37.9167 82.9095 38.1828 82.7334 38.3915C82.5573 38.6001 82.3498 38.8001 82.2783 39.0627C82.2513 39.132 82.2513 39.209 82.2783 39.2783C82.312 39.3285 82.3592 39.3682 82.4143 39.3931C82.664 39.5302 82.9409 39.6109 83.2253 39.6295C83.5097 39.6481 83.7947 39.6042 84.0603 39.5009C84.409 39.36 84.7193 39.1183 85.0785 38.9931C85.234 38.9507 85.3848 38.8924 85.5283 38.8192C85.6311 38.751 85.7193 38.6632 85.7878 38.5608C85.8563 38.4585 85.9038 38.3436 85.9276 38.2228C85.9729 37.9814 85.9818 37.7347 85.9538 37.4907C85.9103 36.5461 85.7075 35.6155 85.354 34.738C85.3335 34.6814 85.2987 34.6311 85.2529 34.592C85.2004 34.5601 85.1399 34.5438 85.0785 34.545C84.6321 34.4981 83.8999 34.2703 83.4692 34.4355C83.3186 34.5178 83.1886 34.6332 83.0891 34.7728C83.0089 34.8615 82.505 35.2597 82.505 35.3762Z" fill="#A1616A"/>
<path d="M82.3638 34.9832C82.3638 34.5589 81.8407 33.5347 82.6724 33.4669C82.6724 33.013 82.029 32.7313 82.1493 32.2496C82.1877 32.0897 82.3237 31.9592 82.3394 31.7958C82.3917 31.3315 81.5513 31.0794 81.6908 30.6342C81.7431 30.4603 81.9279 30.3595 81.968 30.1873C82.0622 29.7856 81.3421 29.6065 81.3281 29.1944C81.3281 29.0553 81.4066 28.9249 81.3996 28.7857C81.3996 28.6119 81.2479 28.4797 81.1642 28.3284C80.9463 27.9406 81.0526 27.3407 80.6551 27.1408C80.9184 27.1634 81.0038 26.7738 80.8957 26.5356C80.7876 26.2974 80.5662 26.0905 80.5644 25.8261C80.5775 25.7304 80.5775 25.6333 80.5644 25.5375C80.4912 25.2836 80.0745 25.2627 80.0048 25.0158C79.9957 24.921 79.9928 24.8258 79.996 24.7306C79.9681 24.5341 79.7659 24.4089 79.5758 24.3533C79.3784 24.3199 79.1884 24.2522 79.0144 24.1533C78.8924 24.0612 78.7511 23.9081 78.6204 23.9794C78.5716 24.009 78.5471 24.0646 78.5105 24.1064C78.3536 24.289 78.0537 24.209 77.8567 24.0751C77.2743 23.6803 76.9849 22.9726 76.8611 22.2823C76.7373 21.5919 76.7408 20.879 76.5856 20.1956C76.5383 19.9826 76.4754 19.7734 76.3973 19.5696C76.3311 19.3957 76.1184 19.1227 76.1044 18.9471C76.073 18.5471 76.903 18.8201 77.2186 18.8601C77.5249 18.89 77.8279 18.9482 78.1235 19.034C78.4389 19.1529 78.748 19.2881 79.0493 19.4392C80.3081 19.9939 81.8285 20.0617 82.8398 20.9937C83.1728 21.2998 83.4535 21.7015 83.8859 21.8406C84.0842 21.8785 84.2799 21.929 84.4718 21.9919C84.9512 22.2162 85.0262 22.8509 85.2877 23.31C85.37 23.4312 85.4417 23.5592 85.5022 23.6925C85.5526 23.8498 85.5762 24.0144 85.5719 24.1794L85.6086 25.3845C85.6678 27.4033 85.7271 29.4274 85.5109 31.4341C85.4412 32.0966 85.3366 32.7783 85.5336 33.4147C85.5859 33.5886 85.6591 33.752 85.7079 33.9277C85.7511 34.1336 85.7732 34.3433 85.7742 34.5537L85.8021 35.3344C85.8118 35.3952 85.7981 35.4573 85.7637 35.5083C85.7346 35.5319 85.7005 35.5487 85.664 35.5574C85.6275 35.5662 85.5895 35.5666 85.5528 35.5588C84.463 35.4614 83.3611 34.8493 82.3324 35.2197" fill="#464353"/>
<path d="M132.093 94.9752C139.215 94.9752 144.989 94.1429 144.989 93.1163C144.989 92.0897 139.215 91.2574 132.093 91.2574C124.972 91.2574 119.198 92.0897 119.198 93.1163C119.198 94.1429 124.972 94.9752 132.093 94.9752Z" fill="#504F60"/>
<path d="M143.188 93.2068C142.961 92.2382 142.82 91.3879 142.82 91.3879C142.82 91.3879 142.872 90.3341 142.398 89.5429V89.2786V87.331C142.533 86.9774 142.698 86.6359 142.891 86.3103C143.24 85.6982 142.891 83.455 142.891 83.455C142.891 83.455 141.589 80.292 141.904 78.2853C142.22 76.2786 139.23 69.3752 139.23 69.3752C139.248 68.7094 139.342 68.0478 139.511 67.4033C139.542 67.2677 139.555 67.1285 139.549 66.9894C139.549 66.972 139.549 66.9564 139.549 66.939C139.549 66.9216 139.549 66.9494 139.549 66.9546C139.504 65.6313 138.454 63.1516 138.454 63.1516L138.595 58.4253C138.595 58.4253 139.265 55.6431 138.173 51.8957C137.791 50.5898 137.547 49.5448 137.392 48.7379C137.375 48.6475 137.357 48.564 137.343 48.4753C139.591 48.1276 141.308 47.8493 141.308 47.8493C141.308 47.8493 140.004 42.4083 139.123 41.4554C138.243 40.5025 137.539 37.5098 137.539 37.5098C137.539 37.5098 137.08 33.6686 137.821 32.5453C138.562 31.4219 138.667 29.4848 138.667 29.4848C138.667 29.4848 140.356 28.2676 140.569 27.7163C140.782 27.1651 141.132 25.9479 141.132 25.3028C141.132 24.6576 140.921 24.0855 140.991 23.7377C141.061 23.39 140.497 22.1049 140.78 21.4928C140.853 21.3048 140.891 21.105 140.891 20.9033C140.892 20.8976 140.892 20.8917 140.891 20.8859C140.894 20.3503 140.844 19.8157 140.743 19.2896C140.254 18.8781 139.684 18.5741 139.069 18.3976L139.033 18.2515L138.937 17.869C138.883 17.8337 138.828 17.8012 138.771 17.7716V17.6325L138.756 17.0795L139.021 15.8379C139.544 13.6782 136.651 13.3565 136.651 13.3565C136.476 13.0252 136.184 12.7701 135.832 12.6401C135.251 12.4366 135.736 15.8884 136.006 16.1179C136.21 16.2918 136.841 17.3664 137.146 17.8985L137.195 17.9855C137.147 18.0283 137.103 18.0748 137.063 18.1246L137.172 18.874L137.19 18.9888C136.998 19.2262 136.842 19.4905 136.728 19.7731C136.728 19.7731 137.251 20.3504 137.151 20.9903C137.052 21.6302 137.314 22.4423 137.326 22.4857C137.294 22.4492 136.923 22.0493 136.552 22.1466C136.18 22.244 135.143 22.5553 135.143 22.5553C135.143 22.5553 134.369 22.6909 134.445 22.8613C134.522 23.0317 133.922 23.7795 133.922 23.7795L131.841 21.811C131.82 21.7519 131.797 21.6928 131.78 21.6372C131.695 21.3533 131.636 21.0623 131.605 20.7677C131.832 20.7139 132.055 20.6436 132.271 20.5573C132.49 20.4824 132.687 20.3559 132.847 20.1886C133.058 19.94 133.098 19.6026 133.183 19.2931C133.347 18.688 133.706 18.1507 133.956 17.5751C134.378 16.6025 134.514 15.5302 134.348 14.4833C134.316 14.1607 134.206 13.8506 134.029 13.5791C133.689 13.1131 133.072 12.9235 132.623 12.5514C132.175 12.1793 131.886 11.6107 131.363 11.3342C130.89 11.082 130.317 11.1116 129.783 11.1985C128.741 11.3699 127.74 11.7331 126.831 12.2697C126.528 12.4436 126.193 12.6575 125.845 12.5931C125.545 12.5392 125.321 12.301 125.133 12.0715C125.135 12.062 125.138 12.0527 125.142 12.0436C125.133 12.0352 125.126 12.0258 125.119 12.0158C124.899 12.5042 124.788 13.0348 124.795 13.5704C124.795 13.6539 124.795 13.7443 124.805 13.8191V13.906C124.805 13.9303 124.805 13.9547 124.805 13.9773C124.805 14.0144 124.8 14.0512 124.79 14.0869C124.746 14.1932 124.679 14.2888 124.594 14.3668C124.53 14.4393 124.472 14.5166 124.42 14.5981C124.42 14.5703 124.437 14.5424 124.448 14.5129C124.315 14.7065 124.24 14.9339 124.232 15.1684C124.222 15.3392 124.278 15.5072 124.389 15.6379C124.493 15.739 124.607 15.8299 124.729 15.9092C124.687 16.1388 124.666 16.3715 124.666 16.6048C124.67 17.2963 124.853 17.975 125.197 18.5754C125.54 19.1758 126.034 19.6776 126.629 20.0321C126.654 20.0895 126.676 20.1487 126.699 20.206C126.966 20.9016 127.166 21.7189 127.077 22.4666C127.077 22.5205 127.062 22.5762 127.053 22.6301C127.044 22.684 127.001 22.6874 126.978 22.717C126.978 22.717 123.538 22.7518 122.729 22.0214C121.92 21.2911 120.685 23.8073 120.685 23.8073C120.685 23.8073 119.453 24.0455 119.205 23.8073C118.958 23.5691 117.516 23.7743 117.516 23.7743C116.925 23.2503 116.156 22.9705 115.366 22.9918C114.887 22.6288 114.359 22.3361 113.797 22.1223L113.758 22.1084C113.51 22.0182 113.245 21.985 112.982 22.011C112.982 22.011 111.291 20.6199 110.798 19.8687C110.304 19.1175 107.956 16.3439 107.945 16.3318V16.1979L107.919 15.7944C107.849 15.8054 107.779 15.8112 107.708 15.8118C107.696 15.7718 107.678 15.7249 107.661 15.671C107.526 15.2775 107.359 14.8954 107.162 14.5285C107.162 14.5285 107.162 14.019 107.311 13.8904C107.459 13.7617 107.25 11.8924 107.25 11.8924C107.25 11.8924 105.726 8.33979 104.36 10.9916C104.36 10.9916 101.78 12.7079 103.945 14.7076C103.945 14.7076 104.817 15.125 104.932 15.4554C105.013 15.6692 105.305 16.2692 105.502 16.6726L105.591 16.8465L105.567 16.8674L105.598 17.2012L105.612 17.3299C105.204 17.5612 104.927 17.7907 104.995 17.9629C105.115 18.2574 105.198 18.5659 105.241 18.881C105.241 18.881 108.236 22.6231 108.623 24.2212C108.623 24.2212 116.656 28.9823 119.297 29.3214L118.83 31.6949C118.762 32.339 118.727 32.9862 118.726 33.6338C118.76 34.1433 118.408 36.4561 118.408 36.4561C118.408 36.4561 117.95 39.8573 117.563 40.3338C117.176 40.8103 117.245 42.85 117.245 42.85C117.154 43.8265 116.979 44.7933 116.722 45.74C116.335 47.032 116.616 48.6318 116.616 48.6318C116.616 48.6318 115.279 51.6923 118.483 49.6178C118.483 49.6178 120.052 49.5204 121.869 49.4578C121.869 49.5169 121.869 49.5778 121.869 49.6317C121.869 49.8647 121.869 50.1169 121.857 50.3812C121.833 52.134 121.822 54.5545 121.902 56.3769C122.044 59.6078 123.03 66.0017 123.03 66.0017V69.2204C122.967 69.5223 122.935 69.83 122.936 70.1385C122.915 71.271 123.218 72.3861 123.808 73.3538L124.056 75.4961C124.056 75.4961 124.635 76.9081 124.645 77.7567C124.643 77.8251 124.635 77.8931 124.621 77.9601C124.598 78.0681 124.589 78.1785 124.593 78.2888C124.56 79.2626 125.147 81.5927 125.147 81.5927C125.147 81.5927 125.182 83.9384 125.534 84.0758C125.836 84.1923 125.131 85.4269 124.922 85.7817C124.917 85.76 124.913 85.7379 124.91 85.7156L124.866 85.7852C124.794 85.9751 124.756 86.1766 124.757 86.3799C124.737 86.54 124.763 86.7025 124.832 86.8485C124.901 86.9944 125.01 87.1177 125.147 87.2041C125.817 87.6127 126.176 87.9518 125.607 88.0875C125.398 88.1198 125.191 88.1634 124.987 88.2179C124.987 88.1918 124.966 88.164 124.957 88.1396C124.877 88.1709 124.81 88.2288 124.768 88.3036C124.725 88.3784 124.71 88.4654 124.725 88.55C124.731 88.8259 124.802 89.0965 124.933 89.3395C125.496 90.5984 125.886 91.0784 125.886 91.0784L126.157 91.0488C126.117 91.1518 126.064 91.2494 126 91.3392C125.897 91.485 125.761 91.6043 125.602 91.687C125.455 91.7751 125.29 91.8314 125.119 91.8522C124.928 91.8584 124.741 91.9046 124.569 91.9879C124.397 92.0712 124.245 92.1897 124.122 92.3356C123.773 92.7894 123.55 93.4068 124.244 93.9493L126.763 94.8187C126.763 94.8187 131.098 95.3804 130.868 94.4101C130.638 93.4398 130.498 92.5912 130.498 92.5912C130.517 91.9988 130.397 91.4101 130.149 90.8714C130.104 90.7835 130.053 90.6987 129.996 90.6176L130.149 90.6019C130.149 90.6019 130.467 88.4579 130.889 88.0509C130.986 87.9571 131.009 87.8771 130.986 87.8284C131.03 87.7119 130.918 87.6441 130.777 87.6041L130.746 87.6893C130.608 87.6592 130.467 87.6435 130.325 87.6423C130.325 87.6423 130.184 86.5207 130.643 86.1121C130.68 86.0655 130.707 86.0118 130.722 85.9544C130.737 85.8969 130.741 85.837 130.732 85.7782C130.735 85.6243 130.719 85.4706 130.683 85.3209C130.678 85.3305 130.673 85.3398 130.667 85.3487C130.437 84.3297 129.656 82.7108 129.656 82.7108C129.656 82.7108 129.621 81.6918 129.904 81.2831C130.186 80.8745 129.867 75.7395 129.867 75.7395C129.867 75.7395 129.973 73.2581 129.656 72.1018C129.339 70.9454 130.043 69.5838 130.043 69.5838C130.043 69.5838 130.043 69.5577 130.043 69.5108V69.4934L130.003 69.1022C130.002 69.1102 130.002 69.1184 130.003 69.1265C129.931 68.4692 129.797 67.2781 129.698 66.7286C129.557 65.9461 129.734 62.2074 129.734 62.2074L130.367 60.6076L131.495 63.3638L132.693 67.0363C132.693 67.0363 133.286 67.8119 133.3 68.6014C133.3 68.6396 133.3 68.6779 133.3 68.7161C133.29 68.7975 133.286 68.8794 133.286 68.9613C133.265 69.4253 133.392 69.884 133.65 70.2707C133.65 70.2707 133.968 72.0096 134.461 72.4461C134.955 72.8825 134.955 73.7381 134.955 73.7381C134.955 73.7381 135.553 76.256 135.826 76.6942C136.064 77.0663 136.076 78.0853 136.074 78.4035C136.074 78.4609 136.074 78.494 136.074 78.494C136.074 78.494 136.158 79.3947 136.154 80.1494C136.154 80.2433 136.154 80.3337 136.154 80.4189C136.155 80.4126 136.155 80.4061 136.154 80.3998C136.154 80.606 136.129 80.8114 136.081 81.0119L136.07 81.0467C136.07 81.0032 136.07 80.9615 136.083 80.9197C135.96 81.4322 135.902 81.9579 135.908 82.4847C135.893 83.389 136.03 84.4601 136.58 85.0931C137.532 86.1816 138.13 86.046 138.13 86.046C138.13 86.046 137.673 87.4058 137.108 87.6788C137.087 87.6889 137.067 87.7017 137.049 87.7171C137.049 87.6893 137.038 87.6632 137.035 87.6371C136.972 87.7049 136.924 87.7851 136.894 87.8726C136.864 87.96 136.852 88.0528 136.86 88.1449C136.82 88.743 137.199 89.7099 137.558 90.1602C137.691 90.2905 137.855 90.386 138.034 90.4385C138.005 90.4584 137.976 90.4765 137.945 90.4924C137.882 90.5267 137.817 90.5575 137.751 90.5845C137.66 90.6234 137.563 90.6486 137.464 90.6593C137.272 90.6644 137.085 90.7102 136.913 90.7935C136.741 90.8769 136.588 90.9959 136.466 91.1427C136.118 91.5948 135.894 92.2121 136.588 92.7547L139.108 93.6241C139.108 93.6241 143.414 94.1754 143.188 93.2068Z" fill="url(#paint0_linear)"/>
<path d="M126.64 94.8135L124.199 93.944C123.526 93.4015 123.74 92.7842 124.08 92.3303C124.197 92.1856 124.344 92.0675 124.51 91.9841C124.677 91.9008 124.86 91.854 125.046 91.8469C125.211 91.8259 125.37 91.7695 125.512 91.6817C125.666 91.5979 125.799 91.4787 125.899 91.3339C126.077 91.0521 126.173 90.7263 126.176 90.3932C126.176 90.3932 128.854 89.6107 129.586 90.3932C129.717 90.5348 129.826 90.6948 129.911 90.8679C130.154 91.4081 130.273 91.9957 130.259 92.5877C130.259 92.5877 130.395 93.4363 130.617 94.4066C130.838 95.3769 126.64 94.8135 126.64 94.8135Z" fill="#2D293D"/>
<path d="M138.572 93.6137L136.132 92.7442C135.458 92.2017 135.673 91.5844 136.013 91.1323C136.129 90.987 136.275 90.8685 136.442 90.785C136.608 90.7016 136.791 90.6551 136.977 90.6489C137.074 90.639 137.168 90.6137 137.256 90.5741C137.321 90.5469 137.383 90.5162 137.444 90.4819C138.126 90.1081 138.109 89.1899 138.109 89.1899C138.109 89.1899 140.785 88.4074 141.519 89.1899C141.617 89.2959 141.703 89.4126 141.775 89.5377C142.234 90.3289 142.183 91.3844 142.183 91.3844C142.183 91.3844 142.319 92.2347 142.532 93.2033C142.745 94.1719 138.572 93.6137 138.572 93.6137Z" fill="#2D293D"/>
<path opacity="0.1" d="M129.588 90.3915C129.719 90.5332 129.828 90.6931 129.912 90.8662L125.902 91.3305C126.08 91.0486 126.176 90.7229 126.179 90.3898C126.179 90.3898 128.856 89.609 129.588 90.3915Z" fill="black"/>
<path opacity="0.1" d="M141.779 89.5412V90.2906C141.155 91.3148 138.137 91.0905 137.26 90.5776C137.324 90.5504 137.387 90.5196 137.448 90.4854C138.13 90.1115 138.112 89.1934 138.112 89.1934C138.112 89.1934 140.789 88.4109 141.523 89.1934C141.621 89.2994 141.707 89.416 141.779 89.5412Z" fill="black"/>
<path d="M142.255 86.3103C142.068 86.6369 141.909 86.9783 141.779 87.331V90.0176C141.095 91.1392 137.551 90.7654 137.071 90.1533C136.592 89.5412 136.091 87.9483 136.63 87.6718C137.169 87.3954 137.619 86.039 137.619 86.039C137.619 86.039 137.038 86.1747 136.118 85.0861C135.197 83.9976 135.471 81.584 135.642 81.0066C135.812 80.4293 135.642 78.4905 135.642 78.4905C135.642 78.4905 135.676 77.1289 135.404 76.6872C135.132 76.2455 134.552 73.7311 134.552 73.7311C134.552 73.7311 134.552 72.8808 134.074 72.4391C133.596 71.9974 133.29 70.262 133.29 70.262C133.01 69.8283 132.89 69.3116 132.95 68.7996C133.051 67.9493 132.369 67.0311 132.369 67.0311L131.209 63.3568L130.118 60.6024L129.504 62.2004C129.504 62.2004 129.33 65.9408 129.471 66.7216C129.612 67.5024 129.82 69.5786 129.82 69.5786C129.82 69.5786 129.138 70.9384 129.445 72.0948C129.752 73.2512 129.64 75.736 129.64 75.736C129.64 75.736 129.947 80.8693 129.673 81.2779C129.4 81.6866 129.435 82.7073 129.435 82.7073C129.435 82.7073 130.829 85.6982 130.39 86.1068C129.951 86.5155 130.083 87.6371 130.083 87.6371C130.083 87.6371 131.037 87.6371 130.629 88.0457C130.221 88.4544 129.912 90.5967 129.912 90.5967L125.789 91.0784C125.789 91.0784 125.412 90.6036 124.866 89.3395C124.321 88.0753 124.968 88.2179 125.517 88.0805C126.066 87.9431 125.719 87.6058 125.07 87.1971C124.422 86.7885 124.798 85.8703 124.798 85.8703C124.798 85.8703 125.787 84.2045 125.445 84.0688C125.104 83.9332 125.07 81.5857 125.07 81.5857C125.07 81.5857 124.389 78.8035 124.56 78.0488C124.73 77.2941 124.014 75.4995 124.014 75.4995L123.775 73.3572C123.045 72.1415 122.779 70.7045 123.025 69.3091V66.0052C123.025 66.0052 122.07 59.613 121.934 56.3821C121.847 54.3128 121.871 51.4888 121.899 49.7273C121.916 48.7396 121.934 48.0841 121.934 48.0841L136.663 46.5538C136.663 46.5538 136.649 47.232 136.93 48.7361C137.082 49.543 137.317 50.5881 137.687 51.894C138.743 55.6344 138.096 58.4218 138.096 58.4218L137.959 63.1499C137.959 63.1499 139.254 66.3112 138.982 67.3998C138.818 68.0461 138.725 68.7086 138.707 69.3751C138.707 69.3751 141.605 76.2786 141.298 78.2853C140.991 80.292 142.251 83.455 142.251 83.455C142.251 83.455 142.597 85.6982 142.255 86.3103Z" fill="#464353"/>
<path opacity="0.05" d="M133.834 68.5944L138.318 67.9979C138.318 67.9979 135.778 70.5836 133.834 68.5944Z" fill="black"/>
<path opacity="0.1" d="M137.669 63.6281C137.669 63.6281 137.823 65.2104 136.852 65.8052C136.852 65.8052 138.59 65.5339 137.669 63.6281Z" fill="black"/>
<path opacity="0.1" d="M137.394 58.5957C137.394 58.5957 133.645 61.6736 132.282 61.4179C130.918 61.1623 137.394 58.5957 137.394 58.5957Z" fill="black"/>
<path opacity="0.1" d="M128.275 70.0377C128.275 70.0377 125.428 70.6828 125.342 71.8235C125.257 72.9642 128.275 70.0377 128.275 70.0377Z" fill="black"/>
<path opacity="0.05" d="M128.901 84.2202C128.901 84.2202 124.879 84.9679 126.021 85.4774C127.163 85.9869 129.039 86.3955 129.039 86.3955C129.039 86.3955 130.338 86.4633 128.901 84.2202Z" fill="black"/>
<g opacity="0.05">
<path opacity="0.05" d="M125.208 86.2877C125.107 86.2247 125.021 86.1397 124.958 86.0392C124.894 85.9386 124.854 85.825 124.84 85.7069L124.798 85.7782C124.798 85.7782 124.424 86.6963 125.072 87.1032C125.145 87.1502 125.217 87.1971 125.281 87.2423C125.402 87.2197 125.531 87.2023 125.654 87.171C126.204 87.0354 125.857 86.6963 125.208 86.2877Z" fill="black"/>
<path opacity="0.05" d="M130.39 86.0146C130.502 85.9138 130.498 85.653 130.43 85.3191C130.256 85.5817 130.205 85.992 130.202 86.3033C130.244 86.1952 130.308 86.097 130.39 86.0146Z" fill="black"/>
<path opacity="0.05" d="M129.771 69.0969C129.623 69.4991 129.531 69.9199 129.499 70.3472C129.577 70.052 129.681 69.7645 129.811 69.4881L129.771 69.0969Z" fill="black"/>
<path opacity="0.05" d="M138.984 67.3128C139.011 67.1906 139.023 67.0657 139.021 66.9406C138.97 67.1945 138.935 67.4293 138.909 67.6362C138.932 67.5301 138.956 67.4293 138.984 67.3128Z" fill="black"/>
<path opacity="0.05" d="M129.675 81.1875C129.731 81.104 129.762 80.8223 129.776 80.4311C129.65 80.7338 129.583 81.0579 129.579 81.3857C129.603 81.316 129.635 81.2495 129.675 81.1875Z" fill="black"/>
<path opacity="0.05" d="M130.512 87.6005C130.301 88.2826 130.144 88.9804 130.043 89.6872L125.92 90.1619C125.92 90.1619 125.543 89.6872 124.997 88.423C124.953 88.3254 124.914 88.2255 124.88 88.1239C124.633 88.237 124.532 88.4926 124.859 89.2386C125.405 90.4975 125.784 90.9775 125.784 90.9775L129.907 90.501C129.907 90.501 130.214 88.3587 130.622 87.95C130.831 87.7535 130.702 87.651 130.512 87.6005Z" fill="black"/>
<path opacity="0.05" d="M125.072 81.4935C125.072 81.4935 125.105 83.8393 125.447 83.9749C125.621 83.5872 125.735 83.2185 125.581 83.1577C125.233 83.022 125.206 80.6745 125.206 80.6745C125.206 80.6745 124.525 77.8923 124.696 77.1376C124.866 76.3829 124.15 74.5884 124.15 74.5884L123.911 72.446C123.181 71.2303 122.915 69.7933 123.161 68.3979V65.094C123.161 65.094 122.206 58.7018 122.07 55.4709C121.983 53.4016 122.007 50.5776 122.035 48.8161C122.035 48.4979 122.045 48.2162 122.051 47.978L121.934 47.9901C121.934 47.9901 121.915 48.644 121.899 49.6334C121.871 51.3949 121.845 54.2189 121.934 56.2864C122.07 59.5173 123.023 65.9112 123.023 65.9112V69.2152C122.779 70.6102 123.045 72.0465 123.775 73.2616L124.012 75.4039C124.012 75.4039 124.729 77.2054 124.558 77.9549C124.387 78.7043 125.072 81.4935 125.072 81.4935Z" fill="black"/>
<path opacity="0.05" d="M137.211 89.2456C136.876 88.7619 136.652 88.2102 136.557 87.6301C136.137 88.0092 136.62 89.4803 137.08 90.0646C137.556 90.6767 141.102 91.0506 141.788 89.9272V89.2803C140.858 90.1898 137.661 89.8246 137.211 89.2456Z" fill="black"/>
<path opacity="0.05" d="M142.393 85.4026C142.206 85.7292 142.046 86.0706 141.915 86.4233V86.905C141.993 86.7311 142.103 86.4981 142.264 86.2233C142.372 85.9556 142.423 85.6684 142.414 85.3799C142.414 85.3799 142.398 85.3956 142.393 85.4026Z" fill="black"/>
<path opacity="0.05" d="M137.42 85.9398C137.55 85.6779 137.662 85.4078 137.757 85.1313C137.757 85.1313 137.176 85.2669 136.255 84.1783C135.586 83.3871 135.547 81.8917 135.643 80.9144C135.469 81.4935 135.199 83.9071 136.119 84.9956C136.721 85.7068 137.176 85.8946 137.42 85.9398Z" fill="black"/>
<path opacity="0.05" d="M135.642 78.3983C135.702 79.0683 135.724 79.7411 135.71 80.4137C135.727 80.3075 135.75 80.2024 135.779 80.0989C135.954 79.5199 135.779 77.5828 135.779 77.5828C135.779 77.5828 135.814 76.2212 135.54 75.7795C135.267 75.3378 134.697 72.8199 134.697 72.8199C134.697 72.8199 134.697 71.9696 134.219 71.5279C133.741 71.0862 133.434 69.3508 133.434 69.3508C133.152 68.918 133.029 68.4014 133.086 67.8884C133.188 67.0381 132.507 66.1199 132.507 66.1199L131.347 62.4474L130.256 59.693L129.64 61.2927C129.64 61.2927 129.64 61.4945 129.619 61.8144L130.118 60.5155L131.209 63.2647L132.369 66.9372C132.369 66.9372 133.051 67.8554 132.948 68.7057C132.891 69.2187 133.015 69.7353 133.296 70.1681C133.296 70.1681 133.603 71.907 134.081 72.3452C134.559 72.7834 134.557 73.6372 134.557 73.6372C134.557 73.6372 135.138 76.1534 135.41 76.5933C135.682 77.0333 135.642 78.3983 135.642 78.3983Z" fill="black"/>
</g>
<path d="M138.504 15.8327L138.248 17.0743L138.264 17.6272L138.274 18.0341L136.852 18.1802L136.693 17.8863C136.398 17.3542 135.786 16.2726 135.589 16.1057C135.326 15.8866 134.857 12.4331 135.415 12.6383C135.758 12.7706 136.04 13.0253 136.206 13.353C136.206 13.353 139.008 13.673 138.504 15.8327Z" fill="#FFCDD3"/>
<path opacity="0.1" d="M138.274 18.0341L136.852 18.1802L136.693 17.8863C136.884 17.669 137.145 17.5246 137.431 17.4777C137.718 17.4308 138.011 17.4842 138.262 17.629L138.274 18.0341Z" fill="black"/>
<path d="M138.634 18.7071L136.757 19.14L136.717 18.8618L136.611 18.1124C136.611 18.1124 137.354 17.1247 138.428 17.8654L138.522 18.2462L138.634 18.7071Z" fill="#3182CE"/>
<path d="M108.243 15.9683L106.24 17.0395L106.066 16.6639C105.876 16.2657 105.591 15.6657 105.513 15.4466C105.394 15.1162 104.559 14.6989 104.559 14.6989C102.467 12.7009 104.96 10.9829 104.96 10.9829C106.282 8.33106 107.75 11.8836 107.75 11.8836C107.75 11.8836 107.956 13.7564 107.811 13.8816C107.666 14.0068 107.666 14.5198 107.666 14.5198C107.857 14.8873 108.019 15.2693 108.149 15.6623C108.21 15.8518 108.243 15.9683 108.243 15.9683Z" fill="#FFCDD3"/>
<path opacity="0.1" d="M108.243 15.9683L106.24 17.0395L106.066 16.6639C106.348 16.4274 107.351 15.6205 107.68 15.6536C107.837 15.6732 107.996 15.6772 108.154 15.6657C108.21 15.8518 108.243 15.9683 108.243 15.9683Z" fill="black"/>
<path d="M108.447 16.5717L106.196 17.6776L106.151 17.196L106.12 16.8621C106.12 16.8621 107.424 15.7475 107.809 15.7909C108.004 15.8191 108.202 15.8191 108.397 15.7909L108.423 16.1944L108.447 16.5717Z" fill="#3182CE"/>
<path d="M133.049 24.0803C133.049 24.0803 123.236 25.1845 125.07 24.5898C126.347 24.1742 126.854 23.3726 126.96 22.4683C127.048 21.7154 126.852 20.9033 126.596 20.2078C126.365 19.5907 126.073 18.9983 125.724 18.4393C125.724 18.4393 133.222 14.3251 131.724 18.0655C131.493 18.6312 131.349 19.2287 131.298 19.8374C131.253 20.4423 131.319 21.0504 131.492 21.6319C131.775 22.5756 132.314 23.4229 133.049 24.0803Z" fill="#FFCDD3"/>
<path opacity="0.1" d="M131.719 18.0602C131.488 18.6259 131.344 19.2234 131.293 19.8321C130.587 20.4251 129.813 20.3851 128.817 20.3851C128.054 20.3851 127.206 20.5694 126.596 20.2025C126.365 19.5854 126.073 18.993 125.724 18.434C125.724 18.434 133.22 14.3198 131.719 18.0602Z" fill="black"/>
<path d="M128.685 20.6459C130.926 20.6459 132.742 18.8343 132.742 16.5995C132.742 14.3647 130.926 12.5531 128.685 12.5531C126.444 12.5531 124.628 14.3647 124.628 16.5995C124.628 18.8343 126.444 20.6459 128.685 20.6459Z" fill="#FFCDD3"/>
<path opacity="0.1" d="M133.049 24.0803C133.049 24.0803 123.236 25.1845 125.07 24.5898C126.347 24.1742 126.854 23.3725 126.96 22.4683C127.449 21.9467 128.43 21.5589 129.053 21.3572C129.628 21.1642 130.249 21.1538 130.831 21.3276C131.06 21.3963 131.278 21.497 131.478 21.6267C131.764 22.5738 132.308 23.4232 133.049 24.0803Z" fill="black"/>
<path opacity="0.1" d="M138.634 18.7071L136.757 19.1401L136.717 18.8619C136.918 18.5867 137.199 18.3799 137.522 18.2698C137.845 18.1596 138.194 18.1514 138.522 18.2463L138.634 18.7071Z" fill="black"/>
<path opacity="0.1" d="M108.447 16.5717L106.196 17.6776L106.151 17.196C106.88 16.805 107.638 16.4696 108.418 16.1926L108.447 16.5717Z" fill="black"/>
<path opacity="0.1" d="M136.93 48.7396C133.127 49.3447 127.722 50.1168 126.865 49.856C126.151 49.6403 123.878 49.663 121.899 49.7308C121.916 48.7431 121.934 48.0875 121.934 48.0875L136.663 46.5573C136.663 46.5573 136.649 47.2354 136.93 48.7396Z" fill="black"/>
<path d="M140.721 47.8493C140.721 47.8493 128.207 49.9916 126.865 49.5882C125.522 49.1848 118.626 49.6212 118.626 49.6212C115.523 51.6958 116.818 48.6353 116.818 48.6353C116.818 48.6353 116.546 47.0372 116.921 45.7452C117.173 44.7967 117.345 43.8288 117.435 42.8517C117.435 42.8517 117.367 40.8102 117.742 40.3338C118.117 39.8573 118.562 36.4578 118.562 36.4578C118.562 36.4578 118.902 34.145 118.869 33.6355C118.835 33.126 118.97 31.6967 118.97 31.6967L119.414 29.3161C116.857 28.977 109.082 24.2159 109.082 24.2159C108.707 22.6179 105.809 18.8775 105.809 18.8775C105.767 18.563 105.687 18.2547 105.57 17.9594C105.366 17.4151 108.435 16.3265 108.435 16.3265C108.435 16.3265 110.719 19.1088 111.197 19.8635C111.675 20.6181 113.31 22.0058 113.31 22.0058C113.564 21.9797 113.821 22.0131 114.06 22.1032L114.1 22.1153C114.648 22.3299 115.162 22.6228 115.626 22.9848C116.394 22.9666 117.14 23.2472 117.706 23.7673C117.706 23.7673 119.1 23.5621 119.343 23.8003C119.585 24.0386 120.774 23.8003 120.774 23.8003C120.774 23.8003 121.967 21.2841 122.751 22.0145C123.536 22.7448 126.865 22.71 126.865 22.71C127.307 22.1223 128.387 21.7015 129.061 21.4928C129.637 21.3006 130.258 21.2903 130.84 21.4632C131.091 21.5379 131.327 21.6556 131.537 21.811L133.562 23.7829C133.562 23.7829 134.14 23.0335 134.072 22.8648C134.004 22.6961 134.754 22.5588 134.754 22.5588C134.754 22.5588 135.743 22.2527 136.118 22.1501C136.492 22.0475 136.836 22.4527 136.867 22.4892C136.855 22.4457 136.599 21.6197 136.693 20.9937C136.787 20.3677 136.283 19.7765 136.283 19.7765C137.476 16.8517 140.17 19.3001 140.17 19.3001C140.17 19.3001 140.476 20.8981 140.204 21.5102C139.932 22.1223 140.476 23.4143 140.408 23.7551C140.34 24.0959 140.546 24.6733 140.546 25.3201C140.546 25.967 140.197 27.1894 140 27.7337C139.803 28.278 138.159 29.5022 138.159 29.5022C138.159 29.5022 138.056 31.4411 137.34 32.5626C136.623 33.6842 137.073 37.5202 137.073 37.5202C137.073 37.5202 137.755 40.5129 138.607 41.4658C139.46 42.4187 140.721 47.8493 140.721 47.8493Z" fill="#3F3D56"/>
<path opacity="0.1" d="M122.479 25.4731C122.479 25.4731 122.105 24.3515 121.763 24.2559C121.424 24.1314 121.093 23.9839 120.774 23.8142L120.994 23.3951C120.994 23.3951 122.274 23.7429 122.479 24.1203C122.685 24.4976 122.479 25.4731 122.479 25.4731Z" fill="black"/>
<path opacity="0.1" d="M115.626 22.9918C115.558 23.3395 112.522 23.6369 112.522 23.6369L114.056 22.1032L114.095 22.1171C114.645 22.3328 115.161 22.6275 115.626 22.9918Z" fill="black"/>
<path d="M106.845 18.5958C106.995 18.5958 107.117 18.4743 107.117 18.3245C107.117 18.1747 106.995 18.0533 106.845 18.0533C106.695 18.0533 106.573 18.1747 106.573 18.3245C106.573 18.4743 106.695 18.5958 106.845 18.5958Z" fill="#575988"/>
<path d="M107.194 19.14C107.344 19.14 107.466 19.0186 107.466 18.8688C107.466 18.719 107.344 18.5975 107.194 18.5975C107.044 18.5975 106.922 18.719 106.922 18.8688C106.922 19.0186 107.044 19.14 107.194 19.14Z" fill="#575988"/>
<path d="M107.535 19.6426C107.686 19.6426 107.807 19.5212 107.807 19.3714C107.807 19.2215 107.686 19.1001 107.535 19.1001C107.385 19.1001 107.263 19.2215 107.263 19.3714C107.263 19.5212 107.385 19.6426 107.535 19.6426Z" fill="#575988"/>
<path d="M107.893 20.1851C108.043 20.1851 108.165 20.0637 108.165 19.9138C108.165 19.764 108.043 19.6426 107.893 19.6426C107.743 19.6426 107.621 19.764 107.621 19.9138C107.621 20.0637 107.743 20.1851 107.893 20.1851Z" fill="#575988"/>
<path d="M140.034 20.1052C140.156 20.1052 140.255 20.0063 140.255 19.8843C140.255 19.7624 140.156 19.6635 140.034 19.6635C139.911 19.6635 139.812 19.7624 139.812 19.8843C139.812 20.0063 139.911 20.1052 140.034 20.1052Z" fill="#575988"/>
<path d="M140.068 20.6077C140.191 20.6077 140.29 20.5089 140.29 20.3869C140.29 20.2649 140.191 20.166 140.068 20.166C139.946 20.166 139.847 20.2649 139.847 20.3869C139.847 20.5089 139.946 20.6077 140.068 20.6077Z" fill="#575988"/>
<path d="M140.098 21.1085C140.22 21.1085 140.32 21.0096 140.32 20.8877C140.32 20.7657 140.22 20.6668 140.098 20.6668C139.976 20.6668 139.877 20.7657 139.877 20.8877C139.877 21.0096 139.976 21.1085 140.098 21.1085Z" fill="#575988"/>
<path opacity="0.1" d="M122.492 34.6893C122.459 34.6493 130.146 44.3298 136.112 38.7357C136.118 38.7375 126.69 40.0121 122.492 34.6893Z" fill="black"/>
<path opacity="0.1" d="M118.08 39.7217C118.08 39.7217 122.68 39.8469 123.161 41.1667V42.5404C123.03 42.6129 122.883 42.6509 122.733 42.6509C122.583 42.6509 122.436 42.6129 122.305 42.5404C121.841 42.29 119.06 40.8815 118.08 41.5597V39.7217Z" fill="black"/>
<path d="M118.166 39.7217C118.166 39.7217 122.565 39.8417 123.025 41.1006V42.4083C122.9 42.4777 122.759 42.5141 122.615 42.5141C122.472 42.5141 122.331 42.4777 122.206 42.4083C121.763 42.1718 119.104 40.8276 118.166 41.4745V39.7217Z" fill="#3F3D56"/>
<path opacity="0.1" d="M120.591 29.7613C121.061 30.8461 121.66 31.8706 122.375 32.813C123.152 33.8546 124.095 34.7632 125.165 35.5031C125.165 35.5031 120.668 30.3907 120.591 29.7613Z" fill="black"/>
<path opacity="0.1" d="M119.087 24.4315C119.087 24.4315 119.854 27.7355 121.831 28.857L119.087 24.4315Z" fill="black"/>
<path opacity="0.1" d="M117.91 24.7654C117.89 24.7045 117.228 27.3737 120.459 28.857C120.459 28.857 119.087 28.3927 117.91 24.7654Z" fill="black"/>
<path opacity="0.1" d="M137.994 22.55C137.943 22.55 139.587 23.5934 140.035 24.0803C140.035 24.0803 138.965 22.4805 137.994 22.55Z" fill="black"/>
<path d="M127.588 20.2669C127.589 20.3551 127.608 20.4423 127.644 20.5229C127.68 20.6035 127.732 20.6758 127.798 20.7351C127.863 20.7944 127.941 20.8395 128.025 20.8676C128.109 20.8956 128.197 20.906 128.286 20.8981C129.522 20.9746 130.81 21.0285 131.947 20.5503C132.16 20.4744 132.352 20.3479 132.505 20.1817C132.707 19.933 132.747 19.5957 132.829 19.2861C132.99 18.681 133.331 18.1437 133.577 17.5681C133.993 16.5957 134.132 15.5278 133.98 14.4815C133.948 14.1609 133.842 13.8519 133.67 13.5791C133.342 13.1113 132.744 12.9218 132.31 12.5496C131.875 12.1775 131.597 11.6089 131.089 11.3324C130.632 11.0785 130.073 11.1098 129.558 11.1968C128.547 11.3681 127.577 11.7311 126.702 12.2662C126.408 12.4401 126.085 12.654 125.747 12.5896C125.45 12.534 125.234 12.2853 125.049 12.0523C124.812 12.6088 124.712 13.2142 124.758 13.8173C124.771 13.9058 124.768 13.9959 124.75 14.0833C124.707 14.1891 124.642 14.2846 124.56 14.3633C124.254 14.7111 124.064 15.2762 124.366 15.6344C124.497 15.7892 124.699 15.8744 124.826 16.0326C125.055 16.3161 124.978 16.7282 124.973 17.0899C124.96 17.2162 124.992 17.3429 125.063 17.4481C125.129 17.5094 125.21 17.5527 125.298 17.5737C125.385 17.5948 125.477 17.5928 125.564 17.5681C125.737 17.5162 125.918 17.4991 126.097 17.5177C126.286 17.579 126.45 17.7013 126.561 17.8654C127.124 18.5975 127.347 19.3939 127.588 20.2669Z" fill="#2D293D"/>
<g opacity="0.1">
<path opacity="0.1" d="M132.65 19.8739C132.496 20.0401 132.305 20.1667 132.092 20.2426C130.948 20.7173 129.661 20.6634 128.43 20.5903C128.298 20.5916 128.167 20.5625 128.048 20.5051C127.86 20.3956 127.789 20.166 127.731 19.9574C127.49 19.0879 127.269 18.2898 126.697 17.5646C126.587 17.3974 126.424 17.2719 126.233 17.2082C126.054 17.1913 125.873 17.2084 125.7 17.2586C125.613 17.2835 125.522 17.2858 125.434 17.265C125.346 17.2443 125.266 17.2014 125.199 17.1404C125.128 17.0351 125.096 16.9084 125.109 16.7821C125.109 16.417 125.191 16.0083 124.962 15.7249C124.835 15.5667 124.633 15.4814 124.502 15.3249C124.417 15.2096 124.364 15.0733 124.351 14.9306C124.337 14.7879 124.362 14.6441 124.424 14.5146C124.206 14.8624 124.113 15.2989 124.366 15.598C124.497 15.7527 124.699 15.8379 124.826 15.9962C125.055 16.2813 124.978 16.6917 124.973 17.0534C124.959 17.1795 124.991 17.3063 125.062 17.4116C125.128 17.4732 125.209 17.5167 125.297 17.5377C125.385 17.5588 125.477 17.5566 125.564 17.5316C125.737 17.4797 125.918 17.4626 126.097 17.4812C126.286 17.5425 126.45 17.6649 126.561 17.829C127.131 18.5541 127.354 19.3505 127.595 20.2234C127.623 20.4382 127.731 20.6348 127.897 20.7747C128.016 20.8321 128.148 20.8607 128.28 20.8581C129.516 20.9346 130.805 20.9903 131.942 20.5103C132.155 20.4349 132.347 20.3084 132.5 20.1417C132.577 20.0437 132.636 19.9331 132.674 19.8148C132.676 19.8374 132.664 19.8565 132.65 19.8739Z" fill="black"/>
<path opacity="0.1" d="M124.758 13.9773C124.813 13.918 124.855 13.8482 124.882 13.7721C124.898 13.6841 124.898 13.594 124.882 13.506C124.848 13.0103 124.913 12.5127 125.072 12.0419L125.049 12.0158C124.811 12.5714 124.711 13.1765 124.758 13.7791C124.764 13.845 124.764 13.9113 124.758 13.9773Z" fill="black"/>
</g>
<path opacity="0.1" d="M126.865 22.7187C126.865 22.7187 131.933 23.3899 132.388 22.63L126.865 22.7187Z" fill="black"/>
<path opacity="0.1" d="M136.717 20.6268C136.717 20.6268 139.535 20.6268 140.154 21.6841L136.717 20.6268Z" fill="black"/>
<path d="M152.481 114.554C151.645 115.299 150.559 115.703 149.438 115.687C149.152 115.687 148.757 115.741 148.755 116.026C148.762 116.11 148.791 116.19 148.839 116.259C149.192 116.848 149.751 117.285 150.408 117.489C151.018 117.673 151.67 117.642 152.306 117.609L154.163 117.513C154.512 117.494 154.861 117.477 155.209 117.433C155.558 117.39 155.938 117.318 156.303 117.259C157.198 117.132 158.104 117.09 159.007 117.134C159.248 117.143 159.53 117.134 159.673 116.96C159.816 116.786 159.743 116.454 159.689 116.193C159.577 115.656 159.689 115.093 159.586 114.554C159.411 113.608 158.59 112.882 157.691 112.54C156.854 112.223 155.372 111.86 154.58 112.389C153.745 112.943 153.234 113.87 152.481 114.554Z" fill="#3F3D56"/>
<path d="M154.326 82.8603C154.489 83.6376 155.244 84.2323 155.265 85.0252C155.284 85.6617 154.829 86.1955 154.502 86.7398C154.193 87.3035 153.932 87.8922 153.722 88.4996C153.105 90.081 152.339 91.6007 151.435 93.0381C150.999 93.7337 150.511 94.4762 150.61 95.2847C150.679 95.6629 150.813 96.0263 151.006 96.3594L152.313 98.9504C152.6 99.4677 152.824 100.017 152.981 100.587C153.095 101.079 153.105 101.588 153.171 102.089C153.377 103.678 154.125 105.278 153.682 106.819C153.644 106.951 153.508 107.111 153.401 107.019C153.834 107.824 154.181 108.634 154.148 109.547C154.13 110.025 153.984 110.524 154.16 110.97C154.235 111.156 154.366 111.33 154.364 111.53C154.364 111.662 154.303 111.785 154.289 111.914C154.252 112.281 154.591 112.587 154.941 112.703C155.291 112.82 155.673 112.811 156.027 112.917C156.707 113.121 157.194 113.705 157.771 114.11C158.363 114.517 159.061 114.743 159.779 114.762C159.882 114.773 159.985 114.752 160.076 114.703C160.127 114.658 160.168 114.603 160.196 114.542C160.225 114.48 160.239 114.413 160.24 114.345C160.271 114.02 160.222 113.693 160.097 113.391C159.972 113.09 159.774 112.824 159.521 112.616C159.411 112.547 159.319 112.452 159.255 112.338C159.222 112.238 159.214 112.131 159.23 112.027C159.335 110.602 159.31 109.17 159.153 107.749C159.083 107.299 159.06 106.843 159.085 106.388C159.122 106.009 159.237 105.633 159.195 105.256C159.153 104.878 158.96 104.534 158.847 104.171C158.644 103.524 158.7 102.828 158.672 102.152C158.637 100.976 158.367 99.8215 158.099 98.6739C157.992 98.2235 157.875 97.7523 157.556 97.4184C157.284 97.1349 156.845 96.8637 156.948 96.4863C157.005 96.3472 157.09 96.2212 157.197 96.1159C157.323 95.9579 157.416 95.7759 157.469 95.5809C157.523 95.386 157.536 95.1823 157.507 94.9822C157.622 95.0114 157.743 94.9999 157.851 94.9498C157.958 94.8997 158.044 94.814 158.095 94.7074C160.219 93.7076 161.931 91.7078 162.695 89.4907C162.74 89.3261 162.809 89.169 162.9 89.0247C163.097 88.75 163.439 88.6317 163.742 88.4804C164.694 88.0022 165.352 87.1067 165.955 86.2303C166.304 85.7225 166.652 85.1974 166.809 84.5992C166.892 84.2123 166.931 83.8175 166.926 83.422L166.98 81.3788C166.992 81.2442 166.979 81.1087 166.942 80.9788C166.89 80.8575 166.815 80.7476 166.72 80.6554C166.141 80.0438 165.379 79.6341 164.548 79.4868C163.99 79.3877 163.42 79.4068 162.855 79.3599C161.76 79.2695 160.679 78.9304 159.584 79.0121C157.863 79.1391 156.331 80.3285 155.52 81.8483C155.236 82.3838 154.936 82.8499 154.326 82.8603Z" fill="#464353"/>
<path d="M144.771 69.5751C144.794 69.8906 144.751 70.2074 144.645 70.5054C144.511 70.7906 144.175 71.0132 143.88 70.8967C143.969 70.6967 143.733 70.4689 143.514 70.4933C143.406 70.5181 143.305 70.5688 143.221 70.6409C143.137 70.7129 143.072 70.8043 143.031 70.9071C142.885 71.1992 142.836 71.5298 142.891 71.8514C142.961 72.2513 143.193 72.6356 143.132 73.0373C143.083 73.3712 142.837 73.7033 142.968 74.0128C143.053 74.1542 143.159 74.2815 143.284 74.3902C143.456 74.6018 143.54 74.8713 143.519 75.143C143.498 75.4148 143.373 75.6681 143.17 75.8508L146.469 75.9169C146.349 76.4664 146.596 77.0281 146.879 77.5167C147.67 78.8601 148.762 80.0024 150.07 80.8541C151.378 81.7058 152.866 82.2437 154.418 82.4256C154.334 82.4744 154.262 82.5413 154.207 82.6212C154.152 82.7012 154.116 82.7923 154.101 82.888C154.086 82.9837 154.092 83.0816 154.119 83.1745C154.147 83.2675 154.195 83.3532 154.259 83.4255C154.528 83.6915 154.983 83.6585 155.319 83.4863C155.656 83.3142 155.919 83.029 156.226 82.8082C156.768 82.4253 157.429 82.2478 158.09 82.3074C158.503 82.3474 158.904 82.4812 159.319 82.5021C160.54 82.5665 161.586 81.69 162.761 81.3318C163.617 81.0693 164.588 81.0693 165.306 80.5354C165.617 80.3059 165.871 79.9285 165.781 79.5564C165.706 79.3425 165.587 79.1466 165.432 78.9808C165.019 78.447 164.775 77.8053 164.478 77.1985C163.891 75.997 163.082 74.9163 162.095 74.0128C161.349 73.3629 160.559 72.7656 159.731 72.2252C159.53 72.0777 159.317 71.9491 159.092 71.8409C158.803 71.714 158.482 71.6531 158.221 71.4931C157.834 71.2497 157.61 70.8202 157.312 70.4741C156.658 69.7125 155.654 69.363 154.849 68.7648C154.308 68.3631 153.83 67.8345 153.185 67.6415C152.871 67.5458 152.538 67.5389 152.225 67.445C151.511 67.2294 150.992 66.5981 150.293 66.3425C149.74 66.1408 149.13 66.193 148.549 66.1217C147.895 66.0412 147.269 65.8037 146.727 65.4296C146.552 65.2877 146.356 65.1738 146.146 65.0923C145.262 64.8245 145.191 66.466 145.1 67.0346C144.984 67.8797 144.771 68.7196 144.771 69.5751Z" fill="#3182CE"/>
<path d="M145.632 75.0805C145.78 76.6838 144.567 78.2366 144.921 79.8068C144.996 80.1407 145.14 80.4589 145.193 80.798C145.341 81.7283 144.783 82.6099 144.251 83.389L139.683 90.075C139.5 90.3685 139.281 90.6384 139.031 90.8784C138.159 91.6522 136.848 91.574 135.701 91.8035C134.895 91.9686 134.134 92.3043 133.469 92.7877C133.439 92.8108 133.419 92.8446 133.414 92.882C133.409 92.9194 133.419 92.9573 133.441 92.9877C133.631 93.2449 133.882 93.4508 134.171 93.5866C134.461 93.7223 134.78 93.7837 135.099 93.765C135.22 93.9215 135.099 94.1545 134.934 94.2675C134.69 94.4414 134.351 94.4814 134.303 94.897C134.286 95.0414 134.315 95.1874 134.386 95.3143C134.571 95.5945 134.857 95.7927 135.185 95.8673C136.766 96.3507 138.475 95.5021 139.659 94.3492C140.843 93.1964 141.692 91.7409 142.853 90.5689C143.496 89.9185 144.227 89.3638 144.889 88.7343C146.211 87.4771 147.24 85.9521 148.23 84.4236C148.528 83.9628 148.83 83.4898 148.954 82.956C149.077 82.4221 149.02 81.8813 149.161 81.3649C149.346 80.6884 149.843 80.1476 150.256 79.5808C151.067 78.4679 151.609 77.1063 151.501 75.7343C151.393 74.3623 150.542 73.0095 149.245 72.5434C148.842 72.384 148.399 72.3572 147.981 72.4669C147.449 72.6304 147.057 73.0686 146.694 73.4894L145.822 74.4875C145.61 74.7085 145.443 74.9691 145.332 75.2544C145.276 75.3981 145.263 75.5549 145.294 75.706C145.324 75.8572 145.398 75.9962 145.507 76.1064" fill="#FBBEBE"/>
<path d="M147.948 68.504C147.348 68.5387 146.687 68.5979 146.263 69.0256C146.086 69.2221 145.942 69.4465 145.838 69.6899C145.426 70.5263 145.025 71.401 144.996 72.333C144.971 73.0773 145.188 73.8059 145.301 74.5414C145.395 75.1535 145.156 75.7778 145.111 76.3968C145.855 76.169 146.839 75.8595 147.513 75.4752C147.974 75.2127 148.418 74.9136 148.92 74.7466C149.637 74.5084 150.838 74.9205 151.52 75.2509C151.557 74.7744 151.198 73.9433 151.236 73.4651C151.241 73.2638 151.277 73.0644 151.342 72.8738C151.444 72.6722 151.565 72.4807 151.703 72.3017C151.963 71.8809 152.082 71.389 152.044 70.8964C152.006 70.4039 151.813 69.9359 151.492 69.5595C150.887 68.8813 149.94 68.6274 149.037 68.5161C148.469 68.4504 147.895 68.4306 147.323 68.457" fill="#3182CE"/>
<defs>
<linearGradient id="paint0_linear" x1="123.133" y1="94.9752" x2="123.133" y2="10.0022" gradientUnits="userSpaceOnUse">
<stop stop-color="#808080" stop-opacity="0.25"/>
<stop offset="0.54" stop-color="#808080" stop-opacity="0.12"/>
<stop offset="1" stop-color="#808080" stop-opacity="0.1"/>
</linearGradient>
</defs>
</svg>
